<mxfile host="65bd71144e">
    <diagram id="CDG_a-X6xDLNmLp52seR" name="Page-1">
        <mxGraphModel dx="1530" dy="1796" grid="1" gridSize="10" guides="1" tooltips="1" connect="1" arrows="1" fold="1" page="1" pageScale="1" pageWidth="827" pageHeight="1169" math="0" shadow="0">
            <root>
                <mxCell id="0"/>
                <mxCell id="1" parent="0"/>
                <mxCell id="42" value="" style="group" parent="1" vertex="1" connectable="0">
                    <mxGeometry x="90" y="-740" width="270" height="290" as="geometry"/>
                </mxCell>
                <mxCell id="43" value="" style="rounded=1;whiteSpace=wrap;html=1;" parent="42" vertex="1">
                    <mxGeometry width="270" height="290" as="geometry"/>
                </mxCell>
                <mxCell id="44" value="Amazon S3" style="sketch=0;outlineConnect=0;fontColor=#232F3E;gradientColor=none;strokeColor=#ffffff;fillColor=#232F3E;dashed=0;verticalLabelPosition=middle;verticalAlign=bottom;align=center;html=1;whiteSpace=wrap;fontSize=10;fontStyle=1;spacing=3;shape=mxgraph.aws4.productIcon;prIcon=mxgraph.aws4.s3;" parent="42" vertex="1">
                    <mxGeometry x="20" y="11.153846153846153" width="50" height="89.23076923076923" as="geometry"/>
                </mxCell>
                <mxCell id="45" value="user/raw" style="rounded=1;whiteSpace=wrap;html=1;" parent="42" vertex="1">
                    <mxGeometry x="90" y="100.3839393939394" width="120" height="52.72727272727273" as="geometry"/>
                </mxCell>
                <mxCell id="46" value="&lt;font style=&quot;color: light-dark(rgb(0, 0, 0), rgb(255, 255, 255));&quot;&gt;user/transformed&lt;/font&gt;" style="rounded=1;whiteSpace=wrap;html=1;" parent="42" vertex="1">
                    <mxGeometry x="90" y="202.12121212121212" width="120" height="52.72727272727273" as="geometry"/>
                </mxCell>
                <mxCell id="47" value="" style="group" parent="1" vertex="1" connectable="0">
                    <mxGeometry x="430" y="-799" width="490" height="380" as="geometry"/>
                </mxCell>
                <mxCell id="48" value="" style="rounded=1;whiteSpace=wrap;html=1;" parent="47" vertex="1">
                    <mxGeometry width="490" height="380" as="geometry"/>
                </mxCell>
                <mxCell id="49" value="&lt;b&gt;Databricks&lt;/b&gt;" style="image;aspect=fixed;html=1;points=[];align=center;fontSize=12;image=img/lib/azure2/analytics/Azure_Databricks.svg;" parent="47" vertex="1">
                    <mxGeometry x="36.3" y="18.16" width="29.41" height="31.84" as="geometry"/>
                </mxCell>
                <mxCell id="50" value="SQL warehouse" style="rounded=1;whiteSpace=wrap;html=1;" parent="47" vertex="1">
                    <mxGeometry x="269.49999999999994" y="152.20878869558118" width="147" height="34.87445887445888" as="geometry"/>
                </mxCell>
                <mxCell id="51" value="" style="group" parent="47" vertex="1" connectable="0">
                    <mxGeometry x="280" y="17.44" width="161" height="32.56" as="geometry"/>
                </mxCell>
                <mxCell id="95" value="" style="group" vertex="1" connectable="0" parent="51">
                    <mxGeometry x="-37.23809523809524" width="161.00000000000003" height="32.56" as="geometry"/>
                </mxCell>
                <mxCell id="52" value="" style="rounded=1;whiteSpace=wrap;html=1;fillColor=light-dark(#000000,#FFFFFF);" parent="95" vertex="1">
                    <mxGeometry width="161.00000000000003" height="32.56" as="geometry"/>
                </mxCell>
                <mxCell id="53" value="" style="shape=image;verticalLabelPosition=bottom;labelBackgroundColor=light-dark(#FFFFFF,#FFFFFF);verticalAlign=top;aspect=fixed;imageAspect=0;image=data:image/png,iVBORw0KGgoAAAANSUhEUgAABVYAAAHSCAYAAAAHV5DPAAAACXBIWXMAACxLAAAsSwGlPZapAAAAAXNSR0IArs4c6QAAAARnQU1BAACxjwv8YQUAALcMSURBVHgB7P3vdxTXme/9X7uqu8VZg+PmjEX86JuWn5+xEM5aCc4cCyaZtc466zvGnmVQ8CQI/wFB+A8wLf8BBvIHgEhuE4zXseE8nCQgZoKP1zI/5PP8Nu3zyAHPbcUhuUGtrn3vq7oahBDQkvrH3lXvV1JIYIxBdFVXffa1r8sIkGP2tzIpRo4KumOkYf5BDgkAAAAAAACeyAiQc/Z3csl9mBQ8nZXd5icyLwAAAAAAAHiiSIC8szIr6MYcoSoAAAAAAEB3CFaRe2lYmMhpwZM1CaABAAAAAAC6RbCKYmhJ3X27KFiblVnz36QhAAAAAAAA6ArBKgohDQ2tnBCspSF35LgAAAAAAACgawSrKI5SGh42BKvVzWtU8wIAAAAAAKyHEaBA7O9kr/vwsaCjYX4sYwIAAAAAAIB1oWIVheJCxPPuw7ygrSm7BQAAAAAAAOtGsIrisUy/z8wxsAoAAAAAAGBjCFZROOYnacVq0QdZLUqTgBkAAAAAAGCjCFZRTLHURQo8sMnKCapVAQAAAAAANo5gFYVkdrtQ1Ra2arVhfpIGywAAAAAAANggglX01DeTp6p/3vX+cf0onsvCxYYUT10C8Ncfnj185+UzBwUAAAAAAMBDJQF6QIPUytKWw0nTzhgj1dJSRbfZ18V3Vg6JkUtSHPPmx3JaPPfND07VWlFSNyLVOy//ZrLZuju77dNDDQEAAAAAAPCEEWCT/vyjX0+aJD7lXk21FT+82Gzd2xFCGGZ/lwark1IETRkLobfqty+fmYtEVlWrRsebrf/3BAErAAAAAADwAa0AsGHf7Hp//M7L718yNr60KlRV1XJcOSUhaMohKYa5EEJVrVZ9NFRVyUw5HrlEewAAAAAAAOADKlaxbrrtv9wcOeo+nXnaz7WmtfuZP/xsXjxnfyt1dzYclfxquAB5dwjB6p1dZ26uEdSv1pAl+9rWz95cEAAAAAAAgCGgYhXrogOFSs2Rm9JFqKqMjY9JCEpy3H27KHll5UQQLQB2vT/dRaiqalIxN+68/JtTWuEqAAAAAAAAA0bFKrrymD6q3UnkyNb/deC4eM7+1oXFRsIIgtenYX4sYxKALqtVH2Gsqf/NJz+dFQAAAAAAgAEhWMUTaTVgu1eqmZSNW2yW741tmz/kfUVoTgdZTbtg9bR47i+7fnPUGluXjWu4o771ygHv/6wAAAAAACB8BKtYk/ZRrSxtObzJoGuF6PjWK1NHxHP2ty5UNWm4mhdzLlT1fjhXO8BPW0z0QqPZurd726eHGgIAAAAAANAn9FjFIzp9VHsXqqpkJoRemOYnMu8+nJe8aEoQ2+PjeKQuvZOGtPRfBQAAAAAA/USwivu0j+qdl9+/lETJcSNSlR5rtxQIQFO0sjYPg6yCGFh1Z9f74+5CdFB6zk67gPWGthgQAAAAAACAHqMVANJt2KVo5Jgxslf6zJrW7mf+8LN58Zz9rdTd2RFyINdwAfHuMILVjQ2sWqeG0H8VAAAAAAD0EMFqgXX6qCbGzvSjQvUxGi7c8n5Cvb3kvh4tueE+rUmYghhY9e2u96cjYwZWyWysOb+U3D1C/1UAAAAAALBZBKsFlQZaYo4OoFLwEdba2Wc+ebMunrP/KtMSSRjtCx7WcKGq9+F1OrAqGrk0jNegu/TNNVt3ZwlYAQAAAADARtFjtWA6fVTTKkEznGpMY8xhrZYVz5l/lDn3YV5Ck8hrEoByPHJ4WK/BrP/qpTsvn+lDb1cAAAAAAFAEVKwWhAaZcXPkeH+GBG1EdHzrlakj4jn7W5l0Z8klCcec+bEcEs+l1arxyE3xQ8PYaOZvPpm6IAAAAAAAAF0iWM25IfVR7Uowg6z+VeYk8iWQfoqmjIUwsOrbl8/M+RPyd9AeAAAAAAAAdI9gNcd0279J4lPD2279NHZ+65U3d4vnskFWWl3pd/sCK7PmJ1IXzw16YNV6GWvqS8nd0wSsAAAAAADgSQhWc+ibXe+Pl40cc3+9k+K5JJLXvvPvB86L5+xvXWBp5Kj4K4iBVerOrjM3/Q3772u4o771yoHTAgAAAAAAsAaC1RzRbf/l5oiGfzMSjkazfG/HtvlDi+KxrGr1hvu0Jn6adsGq9yHgX3949nASJcclHA1Zsq9t/ezNBQEAAAAAAFghEuSCBlalZjoMKKRQVdVKSxXvf89mtyyK9XYoVCOEUFUHViUmCe71KRVz487Lvzmlv38BAAAAAADIEKwGTvuo3nn5zA2tAvRtOFW3jDGHQwitzE9k3n2YF980xfs+tSqOR+oBtAB4DDtdjkdu/mXXb3xuBwEAAAAAAAaIVgCB0iCyHFdOhdBHtTtmbuuVn/paEXqf/VcZd8sRN8Qfc+bH3lbS3td+vaYV1XnQEPqvAgAAAABQeASrgdE+qpWlLYcTY2dCrVB9HGtau5/5w8/mxXP2d6I9Qg/L8C1KU3aY/5YGfV678/L7l/KzCHDfQrN177Vtnx5qCAAAAAAAKByC1YB8u+v9aWPMsbwFqg/Y+a1X3vR+W3s2yEqrL4f792Bl1vxE6uI5fd1GxpyS3DJzzdbdWQJW5Fl1fKpWjmRSPGBMsnjr2rnzglR1fG+1HG3ZKx7g7wbD4K5P+sGLa5RNpPH1wtl5AQAAhVESeE/7qBobHc1hxd8qRvvFHvR9i7UOsrK/lVm3LHFMhqcRQqiqIjE570ua9l+d/Muu38z9zSc/nRUgh0olqRlrPVkgMQ33DeFdZotsqSbGm78bXXTk7wYDVWo/zYx5cY2K5ZL42I8fAAD0DcOrPKZ9Kb99+cycsXEet1E/znFtdyCec6GmtgNoyPDUJQDpsKdgB1atS80aW3cLAzd1cUAAAAAAAEDuEax6SINFDaRK8cgN9xdUtJCmWlqqzEgI7NCGRp03PxbvByfpwoD2ApZiqbljzp2/H+ufXwAAAAAAQG4RrHrm278/s7e8NHJDq9/y20v1yYwxh0MIpcxP0q1e8zJoTTkiAYjjkcK+ht35u7ccj9y88/JvThGwAgAAAACQTwSrntA+qjo5PUrk44JsnX6SajmuhDHsqDnwqtU589+G2oKgKxomFrDaeg1p/9VLtAcAAAAAACB/CFaHTLf9u9DlWMH6qHbBTGrYLJ5LQ04rgxpY1HBBbhDDkcrRyCVBR80dc9p/9S+7zr4qAAAAAAAgFwhWhyjto9oc0Qm6RetD2RUXNh+TEJTSQVaL0n/1EKpVv931/jRV12uqWZOcpz0AAAAAAAD5QLA6BOm2/11nbha5j2qXxu/88Iz3obPZ7ULV/letNoIYWDV5qhqJOSp4grQ9wE1dWNGvlwAAAAAAgCARrA6QVqlpH9V02z8Vfd2JJIjwyfwkrVqdl/4JYmBVZWnLYV7b3dGFlXJz5Ab9VwEAAAAACBPB6gB0+qhqlRp9VNetWm7+pzAqIPtXtTpnfiznxXO6cKBhoWA9apL1X6U9AAAAAAAAYSFY7bO//vDsYfqoblYyc2fX++PiOfOTtGK19wFoIAOr4nikLtiomi680H8VAAAAAIBwEKz2SdpH9eUzN5IoOU4f1R4wEsYgq2a6Zb93g6yszIYwsEpf7+5iwpb2TXvQf1UAAAAAAIDXCFZ77KE+qiLeV1mGw0xqeCeeS0NQKyekNxqyLHMSAJPEpwQ9oy0VtD0A/VcBAAAAAPAXwWqPaB9VrTIrxSM36KPaHy6sPhXEFPVSOsiqIZtXD6Fa9dtd708zsKovatLuv3qD9gAAAAAAAPiHYLUHNFjSPqpaZca2/76qlZYq3veqNbvTVgBHZHMa5sdyWjyngV8khm3r/TVO/1UAAAAAAPxDsLoJ7T6q71+KjDlFoDoYxpjDIVStulBUh1jNy0Yl8poEwAV+h6lWHZS0/+qlOz88wyA8AAAAAAA8UBKsmwZ7cXPkuLEM6xmCarn5n7RCcrMVof1nZdaFjpOyfnPmH2VBPJdVTxLyDVbNLYcdu/PymcPu8/rWKwe8r2oGAACDNTp+QD+MS5QMf95DEi3cXjjj/X0tAAAbRbC6DhqoVpa2HE6adoYK1WFKZv78o19feOYPP5sXj5mfyLz9XTrI6vC6/sWmC2QDEMcjdcGw1CTtv/qbyWbr7uy2Tw81BAAAwDHRsn7YK8aDdk3Rst7XEqwCAHKLVgBd0m3/5aWRG/RR9YOxURh9PWOpu28Xu/75VmZDGVjlLh5UbA9d2h7g5p2Xzx6j/yoAAAAAAINFsNqFv+w687Gx8SV6SfrETN55+Yz3wV46yMqmVavdaJifpEGs9xhY5ZtkRvuv6gKQAAAAAACAgSBY7UIi9nOBj+pBDLJqh6WNLn5qXQLw1x+eZWCVp5aXSw0BAAAAAAADQbDaheXK0nFZz3ZuDEqttFQJY3iSlUNP+RkL5sfi/SAi3W6emISBVX46se3TnzYEAAAAAAAMBMFqF7bNH1pMrPV/Cn0BGWMOh9BbUgdZuQ/zj/0JTXlNApAOrKJa1UeNrVcOHBcAAAAAADAwBKtd+s4nb86J2HmBb6qVaOSYhKD52KrVuRAGVmmAzcAqb9UFAAAAAAAMFMHqOliTzAq8Y43sDWFoTxaerh5k1XCBaxCvq3I88rHAQ2Zu65UD3reRAAAAAAAgbwhW1+GZP/xsPhH/+2AWkbFRGFPq47Sy8EG/XiunQ6hW/XbX+9Puw7jAO81WGME8AAAAAAB5Q7C6Tq2WqQuDrDxkJu/88Iz3Q5XMbvfasfeDsIb5SRhbuCMxYQTXBWONZWAVAAAAAABDQrC6ThpiWGtPCPwTydFvJk9VxXMuTNUhQwsSSF/Mv+z6zVEGVnmpsbwcMbAKAAAAAIAhIVjdgOXK0nGx/m/fLqBqaanifdVq6s+y2/zY/7YSOrDKGlsX+KhOtSoAAFjNijHu8L7YAACAPCBY3YBt84cWk3j5iMA7xpijGgaK58xrYbSTiOORusBHDQZWAQCAtViTHt8TAADQdwSrG/Sdf//5eXfLMi/wTjmunBJsmgbU7gJxUOAfa18TAACANRhr9agJAADoO4LVTbAmYRq3l8zkn3/060nBppSjkUsCD5m5rZ+8uSAAAABrMMboMS4AAKDvCFY34Zk//Gxep3ILvGNsTNXqJny76/1pBlb5qdkSFnQAAMCanntpShJjJgUAAAxESbApy6Wlerk5otulaRDvl9qdH56Z2fq/DjA1fZ3aLQDMUYF33ELO7LZPDzQEAACklpfTDzfLsczJkFljvpQh06lVQisnAAAGhmB1k3SQ1Z93vX9ChyYJ/BLJ0W8mT83p35Gga5Voy0EX4NUEvmk884c36wIAAO5bXDirHxruOCRwqarVD68IAAAYCFoB9MAzn7iww6Y3dPBLtdz8TwTe66DVqi5UrQt8VBcAAIDHGJ2YEmvNtPu0JgAAYCAIVnvERi1Wyb2UzNzZ9T7N+7sUxyN1gY8Wtl45cFoAAAAewxhr3PGOAACAgSFY7REdZOXi1XmBf4wcEzzVt3//q70RPbm81GyZ1wQAAOAxtk/sc48iVndq1QQAAAwMwWoPNVsRVateMpN//tGvJwVPFLVKBNBeMnPbPv1pQwAAANYwOn5AbFLaIcx8AABg4AhWe0jDD2vsCYF3jI1PfTN5qipY07e73p8WQ4WDhxrNlswKAADAGqrjU9KUZMzErY8EAAAMHMFqjy2XluruA1Po/VMrLVVmBI/QgVWRUOHgI7dQc5pqVQAAsJbnXpqSUkl2l2N7XWgBAADAUBCs9ti2+UOLLUmoMPOQMeYwVauPSgdWUa3qo8Yzf3izLgAAACtUx/fqUY2SpB5Ze9G4HxIAADAUJUHPPXvlX47fefmMDgFiGr1fquXmFu0jSi/cTLtalYFVnqoLAKAwqj+Y0g+18pJMGklq1pjv6feNzRY/n7QIaqXhvll0/47ummoYa790P3/BRrZx+7MPFwS5oIGqfihHW/Yaw6AqAAB8EFywan8nB82P5bR4zprWEWPjSwLP2Ok//+jXp5/5w8/mBVKJRo5ZgW/cQ/T5v/nkgP/XuUvugW7ZPfT/ROYFALAuuo3bmYyS5BUXiE5K046nlYdGf9i0P7Q/fbo0dF3577Q/M4mR7Tv367T4BfffuGzEzi+1ooXFhbMNQRA6YWqptGXcBeb6nYPu75EKVQAAPBFUsGr/Vabdh1PuYf6y2a0r8/7S4O7Oy+/P60R6gVeMjXSFf14KTgdWWSN7Bd5ZSswRCUFT6hLJi+6zHQIAfdYJImVIzHJr8fbC5qo/O38GF5AddGHn3naQarrKTjfFGA1tx90nhyuxldGd++fdnfVcsxVdDj1kXRk8ypBt5DWy+vdvknYVaqdq2b1Wxt3HmvsYZJiqfwb3up+UAVpelsZ6X9ej339j3NrYm69xL643oRj06+NpNvL6AVBswQSraWVUS9oDdlpyyn27WzznblYPlWN7Q+h75Bkzqa0atl7xvyKwnxhY5SszF8LAKvtbF26YdhsJ9/mM+YkcFwDoo8hazR+HthvIxpH+t/fIOnWCs0pUOWytnfGhH6ZJA2ozqSHr9p37z1ux529fOxfkfZELJPXDDu01KkO2kdfII7//FaXK7eLlAQTvfeR+79MuFJ6WAapEVudd1Nfz70grmo6MPSy+iKOG+3ZMcu5vd+7b6177H4tHtojJ/dcdQG+FM7wqEX2jq2Xfm0wf6j2n4Yi7gT4h8FG9yIOs/rLrN0cZWOWlRrMlYQy/M+kCV+fzo27xiwUkAFihM2DIBapHy/HITReQ1T0dMrTXRXdzLmD9YnTnPvquo5BsZM6LX2q+VXL2QySRX7vnrCx8RbUqgHUKIlhNq1WtzDz0gysf6j22XFnSKq5FgW9qpaXKjBSQDqyyMtjKAXStHkS1arstS23FD1Xd4hcV0AAgQQWqq40RsKKovr56dt561irMJK1ct+zS66QR69W1xhrLDiwA6xZGxWpzza0cNd1+Kp7bNn9oMbE2jH6JBWOMOawhoxRMHI/UqVb1UiOE9hTpQle0RojqFr9c4Dr0/nYAMEzaQ7VU2rK7Eo/cCChQXe1BwDr+Btd1FIa19oJ4xJjooIaPklPlaItvwfFis7Xk1WsAQBi8D1bTyqhI1l7JCmT76Xc+eXPO/UnmBb6pVqKRY1IgGiS7k54qFA8lkYSxAPNwW5aHRVKo8wkAVhqd2G9MYo9lvTJrEr4xE0c3RnfuP5nncAfoWE6W5qxfOw29GMrWN8avalXn/OLCeXaaAlg3/ytWoyduLw1m+6k1SRh9EwvGGtn75x/9elIKohyPeNUcHh1m7jv/fsC33l6PWLMty8OC6H8NAL1UHZ/SY8xE9rox/u+mWi8jcqgSj1zXqekC5FgaqlnxaveQsTaXrZbcNbPWHqLnj8SYQg82BrBxXgera/TxW+MnhbH99Jk//Gw+Eb/eqNFmbFSI3pDf7np/2n3gochDwQysanYxYdfIKQZZASgKDVWdsUpsL7rV2jy/x46ZJLq+fWIf/bSRa74NsdLwMY8V45UomRafWGlon10BgA3wNlh9bB+/tQSy/bTVMnVhkJVX2tt9TCF66bSSaN59WBB4xRo7G8zAqqirNhI1Wc5fxRYArPZQqJqPrf9PY7Rv7OhL+98TIKfSIVbWenW/PBJVpiVvjPFtaFVdAGCD/K1YbVdG1br82UFsP9XwxL1RnxB4wb2Bnlgu3xvbeuVAIaY/6uvP/Vl3JNYe0lVZgQ8ay8vRnIQgWkfbFSOHqVoFkGcFDFXvM1aObJ/Yd1238gqQQ0bEq6KLxJhXJUeee2lqUjy7bsat6LIAwAZ5Gaxm1arrW8UKZPvpcmXpOKHWsNn5prU7nvnDmzPb5g8VroJYh6lt/eTAmFZKCoatHkS16u+eMLBqbVVpMcgKQH6VY2vccVIKFqreZ8wODZUJV5FHS8nScZ+GWGk7gNHx/PQ4dosz0+KXua8WzjYEADbIz4rVlpyS9Qti+6kGeTZqHRIMQ8Oa1u6tV97cve2TNwu/Jd4Fy/Vmy4zR+3dotILY+699utAlG7q2TjPICkAebZ/Ylw6U8W3wyhCMtcPV/PV/RLHpECt3fs+LR0xk9kpOGLGviEcYWgVgs7wLVrOBVZOyEYFsP9VBVlo1KRgIXXHW6sxm+d6O9tceHVot+Z0rB6a1gpdK6gGz9jUJwfrasjzMCENOAOTKcy9NSRJFu8UYrm9tY5WoQriK3HFhm1/t24w5LDkwOjE1LT5V+jO0CkAP+FexGm3qQTyY7afWJGzDHggzp31UtTqziNv+u6UVvNoegP6rg2LmtgZQNb2htiwPm7S/E6+GEwDAZkTWGnecFDxgzI5yPMJAK+RKOsTKr6HD1aw3adCssV71i2VoFYBe8CpYtb9PQ9WabE4Q20+1clKHJwn6xM63t/3/9BCBave0/2ozMbt5bfZXsyVhLKxsrC3LanUGWQHICSPW9uJeNXeMu//ePrGPKl7kivFs6LBb1Al6sVp7MrvwwauWBgytAtAL3gSraWWU7VGP1EC2ny6Xluri10poHjTcMa19VNn2vzHaHkAHe9F/tT+0LUUQA6s205blYUH0vwaApzHWXc9oAfA4Rr82eaioAzp0iJX4ZW/IbTfKkV/FT25B6AJDqwD0gj8Vq+0+fr16owhi+2k6yMqzldBQreyjGsJAoBB0+q/SHqCnNLSuSwiiHi5Qtftf1wQAQma4jj2Ftkn4iH6ryAsdYmX9GmJVLUflgIdYJX71iTU92ZkFAH4Eqz3o47eW40EMsvrEhSyEVptirZxfbpkd9FHtD20PoP1XW5Ic4bW6aXUJQI/asqwUTP9rAMCmbKvEI/SgRW5YY/xq32SiINsBaBsAY8y4+MI90/zx6gcXBAB6wI+K1ZZckt6rhrL91EatQ4INaPdRfeaTA6+FsLU6dM9e+Zfj2n+V9gAbthBCNXXWlqUuvbc3hP7XAIBN20tLAOSFb0OsjMhkiFXh5diz4gLjVSUygMANPVjN+vjVpB8C2X7a7gVq5wVdyW5ujtBHdfA67QG0/yqv2fVxX7PXJATNPt74BtL/GgCwKdoS4CQtAZAXvg2xqkSV4HrXG7GviEeilmeVyACCNtRgNd2qH/X1Qbvao6nWfddsRVStdkH7qC6X741tvXLAt2byhaIBqwbb9F/tlpkLYmBVf9qyrDRpf8sgKwAogLEQwx9gLb4NsbLGeBVSPk1WwV4TT2jfXIZWAeil4VasJqINrGvSX5MhbD/V0MVay8rZY9l5rZKkj6pfOv1XNfAWj7ZJeabRbEkY53Z/2rI8zMjREPpfAwA2yZhfULWKPPBtiJW2Awip3Yax6Q5Vj9g5AYAeGlqw2sc+fo8yYQxNWa6kq6GEUw9raB9VrY6kj6q/NPB2wfcO+q8+yoXOp4OoVu1nW5aHBdP/GgCwKduoWkVe+DbEyiStvRKA9uKKfVV8YaVx+9o5nlcA9NTwKlabA21gPR7C9lOtxGxJQtWqtPuoahXk1isHxuijGoaH+q/SHqCjoaGzeG4AbVke1q5arQkAIN+oWkVOeDfEykT9bN3UM+Voy14jHu1UYmgVgD4YSrCabs3vbx+/RwWy/VQnrxd9KJALVE9oH9UQAik8Ku2/+smBMfqvpuoSgsG0ZXlYIP2vAQCbQtUqcsOzIVbVINoBGOtVAMzQKgD9MJyKVTOUB+qqCw+CmEhtTVGrVu28bvt3geoMfVTDp/1Xm5V7O7L+qwVk5rZeOeD9VqOBtmV5WBD9rwEAm2TMzwXIgSiJ5sQjLuj1+tm2Oj5V036w4gmGVgHol4EHqwPs47fGf1xmQth+qlvfjZXzUhz3+6iy7T9fNCDP+q+OFa3/ajADq5pDrKo1VK0CQAHUQhq0AzyOhnKeDbEa97nVRjnybQGdoVUA+mOgwWoaakZDrhoNZPvpUmKOSM4HWXX6qDbL93YQqOZbp/+qBujFaA9g5oIYWPU72TvwtiwPq9nfBtIuAQCwUcYkLX+G1wCbkIhf7QBGosq0eMoYrypqF5utpQsCAH0w2IrVYfTxe1QQ2081lLF+9fHpMTPX6aPKtv/i0AC9AP1XG8FUq4ock2EzcjiE/tcA0Bft98LzbrF5zh0nxNpZPfT76Y9buyA5EMqgHeBpWq0lr4ZYJcZ4uWhRHX9jXIb/3L/S+cWF8zxzAuiLkgxIWq3aEj+a17e3n46J55YrS8fLSyMH3e+3JrmhfVSTWSpUi037r37zg9/Ml0rJjLHmsORLPYhq1WG2ZXlYp//1EQGAvLPa/kguWGPOLy/fXejmQX/0+wf0w7i0knEdBONTz8J1SAft6GR1AQKm5+zoxP7TujAsHtDrwfPje2tfLZxviEfKcTyT7k/0hG0lOS5YAjBsAwtW0z5+wxmVtZZ0+6n5id9bULWS89td789GYoLvQ6gru+6Nf2brlTcL1WcTj5eFjzMuYD0ex7buLg95qGZpBDOwquXRMD/tf/1bueCuyfMCAPl0PjHmxNfX1h8s3v7sjH7QytWF58en5tzHWiuSSSP2aECL7yZKkknxqD+lL1zYLNUfTF1yX6KeFn2UlpLXImPekyHTSuxm2RyXQbp7r6+ViTYy54213hQGJO12AHXxiLs+vSK+cAtatxc+zEX1PwA/DSRYTSujIs9Ck/b20+Nmt999TLWy787L77uvnZmUAKVbZYw9sVxaOs6Wf6wlC1in3SLCvFtECOkh8RFJFEjVZXuhqyY+MWnQOy8AkCPuPuhS3DJv9WoStft19EPDHXPbX0pD1rp1AY8R/1uqWGP+q2BNi5/e/3vtidGJKfdttOhDxaALIBcXP/2gITmildejO/fPe1M9btLdX3XxxN/u3LdXPGoDYI2tCwD00WBqSIc9sGptne2n3tOt8xIkO7/cMjvoo4pu6CKC9l9tSXIkzP6rZu47/37gvHguGyLoY3VwEP2vAaAb1so37tvXbl/7YE+vQtXVbl09K9Gy1F1wOxFCL1bfJ5gD6+HOOZ8GIaWtNsQTkUR7xSNxK7osANBHfQ9W7e+8GFi1tvb200nxnPYjTURC2kK/oNPft155c3cIvSbhl2ev/MvxZmJ2B/aal2AGVrU8GFj1OEZOMcgKQPCsvREnZuLWtXN9X2zTClZ33DRRtEOM8f19qFqWck2AHFhOluZ8GmJlkpYXYWZ1fKpmxPq0gD/Xr8UtAOjoa7CaVkaJJwOrHseEUbXaKt/Tr6PXVZ/ZzcWRrVcO7GA4FTZDA/nvXDkw3WxpvzE7L56zxs4GNLDKqyqCVWqy7Pl7BgA82cdLydKeQT/Ia/Wq6FZg38PVSMYFyIF08Jz1pwjAmOigDxXh5civoqXEGOZ7AOi7/lasNtNeLzXx26T9nddBQ0q30ltrvZ1maLWPavnemAtVB9ucHrmmYaVWPifWHvK4PUBDewhLCPxsy/Kwdv/rmgBAaKy9cevaB6+ngcsQBBCuGne8KEBO6BAr8Ud1pDQy/IFRxqNqVffsoP1wBQD6rG/Bqsd9/NZyLITtp8sVF954Fy7Zea0qfOYPb87QRxX90um/qpWh4p8gegjb36ehak38V5VWGDsJAOA+Kze1UlWGTMNVtxA/q5PYxUORiWoC5ISGdtajwZuJHe6un3YbAH8qVhlaBWBQ+lex2pJTEo4gtp+mVatR65D4oUEfVQyaDkLTIN+j/quNrVcOeL/FKF3osmkbgFBMM8gKQEBslJg9w6pUXa3ZumfdMevjTg9LxSpyxqchVhpqDrMdQDmyXj1PM7QKwKD0JVjN+vhNSkgC2X7a7l06vJ6T2kdVqwZdmDRGH1UMw0P9V4f80Oh+D7slBGG0ZXlYIP2vAUCMeden4Sgu4JVSacs3SWTeEv8woBC54tsQq5GoMi1DYoy8Kv5gaBWAgelPxWoIffweVfV6WvZKVo7IEHT6qGrVoABDlvZf/eTA2PD6r5q5IAZWhdWWZSXtfx3i7xtAkVi5eevq2bp45uurZyWyukXZu8EtVR8G7AC94tsQq8SYoYSbz700NSkeLeK7kNen/rcAcq7nwWpAffzWsjeE7adbP3lzQUNOGRg7r9v+6aMKH2n/1Wbl3o5B9l/VyoRmS/yevNzRko8lXMdD6H8NoLCsp72/U1FLbOThe9UWqlaRMz4NsdJ2AFnIOdj/rk8tp6w0/nj1A29aNADIv54Gq1kfP+97lT5RINtPl0tLden/tpNGEslr2keVbf/wmQb+A+2/6hY2gqhWbbdlGZdwVUPofw2goNzD++1r57zts/3VwllJYttwn3pVudWSMsEqcsW3IVZRkkzKwFmP2gBY7+cfAMiX3lastvv4hX6zNGl/G8Ygq5YkfalC6PRRbZbv7fjOvx9gGwWC0em/mkTLr/WxPUAjmHYYYbZleVgg/a8BFJDxJ0h5nMQY645fikdsKSZYRe74NMRKjDksAzQ6MTVtPMoAoiSaEwAYoJ4FqwH38XuUkaMhbD999sq/HO99eGTmlltmhwZHbPtHqL7z7z8/38f+q3UJQOBtWVbS/tenBAD8Ym0r8SqwXIv2WjXWzvs0XAfII8+GWFUH2g7AWG8yAK0cZmgVgEHrXcVqSy5JfgSz/dRGrUPSE+0+qluv/PRQCFucgW6k/VcTs7t37QHs/NYrB7zfXpS1ZalLfkyG0P8aQIFoG4CFDxckACaxetBvEOgjHWJlfGoHYAcTdlbHp2ra11W8YecEAAasJ8Fq1sevJnnSrlqtiefavU/tvGxQtrI6TR9V5FWnPYD2X7V2c33mmq2oRwsZfdbMVajaZuSYAIAnjJHPJRDWuIjFRJcFQF8lxgxwuPBT7a2O7+37Dsxy5FGo6nnfawD5telgNd0yn4c+fmsJZPvpRsKeTh/V5fK9sRAq8IDN0oD1mU8OvLbx9gBmLpCBVeO5acvysHHtf23ztDcCQKis2I0vag9aM2npEUR1LRAyHWLlPjTED9WRqDItfZcMtJ/rEwXQ9xpAPm0qWE0fcJN0y3xN8km3n+4Wz2nYY63tdpCV1b85+qiiqLQ9gPZf1YUFdzbc7PJfazRb0pdhcb3kQlW9qn8seWXSRTyGngAYulYUBVOxqtsY3NEQAP1n/ZlInxjzanV8r/RLdfyNcWPMuHgiahnv79UB5NNmK1a1j18+q1U7jJx04ar3litLx92Hb57wU1ygKjesae3ZeuXNPfRRRdHpwkIzMXsSkTlpnx9PcsL3cyar5JyW/C50qapbzDtK1SqAYTPLrWAWphcXzkslHtHfb0MA9NVSkj6TeSHrfdq3BelyHHszk4ShVQCGacPBqv2d5LOP36Nq7vB++6lWnrYkeXetf2bbgevbW68cmKCPKvBA1n/1ULNlXnDfvSFrB6w33bnjzU3yE9Ry25ZlJZvukhgTABiiZmAVoNZq9wLLLiWgz3SIlfVoiFUlqvQl/HzupSkX3NpXxBsMrQIwPJupWN2b0z5+jwpk++mzV/7l+KpBVtYae3y5fO+FQIIhYCg0YNWFh8Tat9ZoD+B/C4B2W5ZpyXe16gOtMHYSAMgvDU8kJMboQbAKDIA1Hm1JN+aghqB9MCm+3HcytArAkG0oWE37+EmhJjS3t5/+q3jPmkTfyNM+qk1rJ575w5tH6KMKdCfrv/pC2n81PY/MXCDD3fLfluVhk+7wvv81AAAoHh1ipYOCxQ81ad839Yz2bTU2XdD3A0OrAAzZuoPVgvTxe1R7++kO8Vy61d8Fqmkf1U/eZAIssAFp/9WWeSGIgVXFacvysED6XwMAgOIx1p4QT5iktbfHQ6yqRqw3O1dtK/Hmaw2gmDZSsVqMPn5rieS9EB7ktxKoApum7QECGfJWnLYsD6u5o84gKwAA4BuvhliZSO8Te9bWrhxt6WlKuylWbtxe+JBnXwBDta5gNX2AbVdG1aSYJt2xmwd5AD4oYFuWhxk5LAH0vwYAAMXi2RCraqm0ZVx6oDo+peW4/lSrGn8qgwEU13orVscKWhn1gJGTwoM8gCErbFuWh7X7X9MSAAAAeManIVbG2qM9agdQMz3u2boZcSu6LAAwZF0Hq2llVEveE9RkWWaoWgUwZMVty7JSu//1pAAAAHjEpyFWLgzVitVNFweVosSfNgAic18tnG0IAAzZeipWp0V7+aGz/XSbAMAQ0JZlFSNH0yFeAAAAHvFoiFV1JKpMyyY899KURMYcFk8kxpwWAPBAV8Gq/X36M6mMeqCq1btsPwUwJLRledikO/aykwAAAPjEpyFWLoh8dXT8DdmESfFlUd/KTa0IFgDwwFOD1exBVUPVmmClaWH7KYABoy3LY+kQL/pfAwAAb/g0xCrrjbrhIVbGps+/XrDGetO/FgC6qVitiUcXUa+w/RTA4E0LbVnWQv9rFNJdabGgAAAeS8SfyfUmMhu6h/zbnfvco699RTzB0CoAPnlisEofv6eadMdBHuQBDAJtWZ6i3f96TIACKZViglUA8FirteTNECsx5rD2St0ADWRr4geGVgHwytMqVunj93R1YfspgD6jLUtX6H9dDLznAgCCoe0AfBpiJetsZ1cdn3Jr18abTIChVQB889hgNevj95Hgadh+CmAQaMvSHa2omBTkWfX5cbphAADCYRN7Xjxhktbe6vreR2uRL22orDQYWgXAN0+qWJ12x4uily+OJx9GfiFUkQHop3Zblu9JSNfG4V2Tj7LYlXs1QcokfC0AwHe3Fz5csL4MsTLRQVnH7o9y5NOCtaVaFYB3So/9J0Ya7nhL0J0mWxMB9FGc3ozPC7ql12Q/+pnlQGlZGkks3mhJmffcjJGkls56BgB4zVp7wRgzKcNXLUdlrUCde+pPHJ9ybzH2oHgiSqI5AQDPPDZYNT/hAR4AfGH+4ek3v0BhRDLuvl0QaK+5F5/WMH9gLIsZAPA4y8nSXDkeOWp86BVuooPV8b1ziwtP7VBQM560WHK/jwsMrQLgI2/uxQEAALphxNQEKWNtTTxhDcEqADyODrFyC1BebGXPwtKnBrzlyM6IJxKxHwsAeIhgFRiC7Tv3tbfWAEAAfKsQMcaMC+S5l6b4WgBAQGxkvBliVYkqTwxN2+8x8qr4wErj9rVz9FcF4CWCVWCA9AZldOd+bYb3mjvGvjuxTwAgEA3xhBV55fn1TTTOq0nxiPHoNQIAPtKJ9r4MsbLGvKLPJk8wKb4MizS0KQTgL4JVYACqLgAYnUgD1d3uuOjuDj6qxNZ9lCPbXdA6upOAFYDfrLU+bfPW7Ys1Kbok8ata1dovBQDwRDrESjyQtQOYfOw/tzItnohaZlYAwFMEq0CfbW9XpW5zx3uRtRdXNICvuZXi99zHL9wxrZWstAcA4Ct3vWqIR2xUKXTJqr5fGGP82KLZZq3YhgAAnkiHWFnxoye1SVprvpeOTugzifXiPUYrfBlaBcBnBKtAn+jWmu3tbf/1cjzyhTHyuD5GNSPmlPt40h1joy8RsALwj7HiVTVi4kLFarHbAXgzqbnDRjEVqwDwFF4NsTLRwce0A5g2XQy3Ggw7JwDgMYJVoMc0FM36qOq2/y/cHcvRbm5M3M+ZrsRWq1e1inWM9gAAfOJbNWK3E43zqhz5Faqq5eW7CwIAeCqPhljp++jkQz+gBR7GHhQfMLQKQAAIVoEe0cqpbNv/mDsu6rZ/2UAPQGNlJuu/Oq0Vr09pKg8AgxFF3oVmT5tonFft94XksPhlMa3CAgA8lU9DrNwzy+FVO0D82RHB0CoAASBYBXpgdOd+/aB9VOtaddqDm5FOewCtYN1N/1UAw+ZlNaIxhwta3T9pjPFqcJULCKhWBYB18GWIlazaAeLTjgiGVgEIAcEqsAlaNZRt+5/RPqq67V96q5ZVvqb9V7UituA9BQEMSVaN2BC/6IOgH9sVByQdWuXRpOb7bPK5AAC65tEQq+pIVJlOPxl/wz3O2F4/z2wIQ6sAhIJgFdgAfbDd/qCP6kX3ybF+Nnhf0X+17o5t9F8FMBSJvSyeMWLq350o1DWxZsST3ncP2CiK5gUA0DVdsDSetANYMRBSd0PUxAsMrQIQBoJVYB1W9VH9SKtJB9qDyJijlXjkumT9V2kPAGCQEuPldu+aO2aKUM0/OjEl5ThdYPOOWTZUrALAOrlA84R4oDMQshzHvvQuX2y2lnxplQAAT0SwCnRJH2gl66Najq2Gm8N6il/Zf3WM/qsABmU5sfPiIdtuw9K3XQM+yILjaQ+rVdOpzWzXBLAmY74neKx0iJW1Xixa6kBI9x7zivjhPAMRAYSCYBV4ihV9VA+l1aLuAd748QBfy9oD3O+/CgD9tLjw4YIn/eBWq5ZLI0f1ep1jVV/63j2Cqc0AsGHuucKPysz2ImVNPJAYc1oAIBAEq8BjaHXQ6M6pB31UjdUAsyaeyfqvagVtXdsD0H8VQD+ZxJspxg8xVnT74u48VvCnLQCiEW8eeFexxsh5AYC12LRnJ55gKVk6LnjAyk2t5BUACATBKrDKij6quu3/1MD7qG5MNVtl1gpW+q8C6JskjubEU+56/ZG0e2DnRnYtn3bhpS997x5xb/nevwkArMVI7fkC9MDeDN3ybj0ZYuUDa+ysAEBACFaBFbJtpFkf1ZEvvOxl92Sd/qtpuED/VQC9trx819d2AKpaiZKPsvYtwcuu32Ni7DHxlG5hpQ8e4CUrftD2WTXBE1ljCBMzcSu6LAAQEIJVwBkdP9Dpo7rbsz6qG7V3Zf9V2gMA6BUN0XxtB5AyRredngy973Q2rGrMXcsvevx+ZBOxHwsAryQm0eNP4gkbVShZfYp0iJW/i5aDNMcwRAChIVhFoaV9VCfSQHWHOy7qtn/J0ap61n9V/0zT9F8F0Cs+twNQeu0T7TsdaLiaharbKqVEdx/UxFdWGrevnfuVAPCKMZEe3oR0iTGvVmkH8FTG2hNScAytAhAiglUU1ujO/fpBt/2/Z+LW9QD6qG5Upz1A2n+V9gAANiuIypp23+l6+5oXzgN9dn12oWrloljj99AXQ09AwEel5fRoiCeye+yQd4INROGHWDG0CkCgCFZRONpHdXt72/9M2kfV44EgPdYJWNvtAV4iYAWwcUFU1rTDVb3mbQvhepf1+R5LW9L4Hqrq7t6WeVcAeOdu+39eLX5VosoM951PVvQhVgytAhAqglUUht7MdfqouuML98mxwPuobkjWHkCrV98T+q8C2KBQKmva1zwXVHp+vcva0uzO2rfUxHP68E8fPMBPLqATd93TYLUhvjDmsOgwPjxRkYdYMbQKQKgIVpF7ugU067OnN3O566O6UcbKzEP9V8ffEADoVnsSfDC90Gqd651v7VDSXRQv7dNQ9b2A3p9crmrnBIC3rLV6+FS1Wi3HNvjBgv1W1CFW7k3wAot1AEJFsIpcW9FHta5Vmjnuo7pRK/uv7qD/KoD1SIzMSTgeaoeiD/fDvN61d1FMdXZRXA+qLQ1DqwDvuQV0PT4Xj2T34cEOFhyUQg6xMnJKACBQBKvIJa0AGl3RRzXrs4fHq5k40q2y9wMHAHiarLLmkgRkRTuUuqTtAQa7oNR+f0oDVd1FcSqtUvW/n+pK1hpbFwBes8ZdXUw0L755aLAgi/lrKdwQK7dY98erH1wQAAgUwSpyRW/Qtj/oo3qxqH1UN2pl4JC2B6D/KoCniFvmLQmRe7jP2gO0B/pl1zxtH9Nr+mvqDooVfb5PtXdR2IMSGqpVgSA0k5YeXlWs3vdgsCC9/tdQuCFWprgDuwDkQ0mAHNCH1kpUcSu8aQWQ9qnr/ZNxkbRvePWBf3b7S/tPLy0bu7hwVgBgNe2J5gLD4y4xDGcr+wO1bEFpOnuI1Z6xF9yfJ+1vZ7RDYWTl9mcfrufXlOoPpqS8pL+ANcZarT7SBT69pr7q3p8mJVxUqwKBWFz4UIsNFsRT2bV30uq95s79p7UjbLMVCfebbTrEyoT9ftG1qFXcgV0A8oFgFcHb7la6l1pL2kf1cDm2OnGUCtXe6PQj1K/p6y5oaDRbBKwAHtVs3ZstxyMHTbundZDavf/MZCUekSxk1UovnVDcSMMJHQRjjP48/eer/12NHNufuf8vtQdQuV9PXnTHK+7XDGmr/5Ocp1oVCEd2rZr3eMZA515TF/Q1XLu8fWJfo32tXd/CVrrbYMsWKS27y/ByJLcXzkjIlpfvLrj31cW877zT91uGVgEIHcEqgqV96txKrrvfsHvdQ+t70q48Qq9ZGdctq+7GZ8597113w3vz1vVzAgAdum3xuYl97xpjjkkOZCGEO8xhk9x/Z9HKr8UVx0r64FvrfKw0bZa26i+Wm3cmG7XM2wIgGO4+WbPVy+46NCl+SwNWd7+p9516rb0sDy1saQXn2v+iyf6ZW+DT62/nWvyNtK/ZwdL3VXfPfSL/cyLsnABA4AhWERxdkS5HI3ofNem++45WGAn6rrNly93cnnY3ubO6Zev2NQJWAG1fXz93fHRi389duLpD8siY8ftZ6dr/XHLMuj/fLFVFQFiSKB2nMR9ZG044177Wjq9a2Gpkx1pq7qhW4pGqNLMa3WhZq1+DDlaVTex5E+c4WNWe3dfPnRYACBzDqxCUbFq9bjXVPqoXPd7alFe1bOVcB1xNb2eiK4CV4lKYg6zwZFZu3rp6lh54QGC+vnpWq1Yv20er7MNi0l1pk2sd2T/L5Xb52wsfLuR6iBVDqwDkBMEqgqDb/re3pynXy/HIF8YEOSQlTzo9sT6SbJo2ASuA25+d0V6kBHD5YqPE/IMACJNND6oCA2WtvSA5xdAqAHlBsAqvaVg32g5Ud4tWSRpzNO9N3AOzV/uvuo8nJQ1Y9wmAYrt1/VzdPQjeEOQBLQCAwNnIWHecFwRpOVmaC77ieA0MrQKQJ6X/9wenBP1zd4vItvlDgvXp9FFtJmnfpJORtZMCb3X6r7qbpNntO/efNkbsH69+IFifbyZPyZa7gj7imjwYcRK93ortddNu3YJQuYD81rUPqCgCAqbtAJz57RP7G7ptXhAUHWI1OrH/tPu7Oyy5wtAqAPmhw6vGBH1kdIXxG0HXRnfu18me+jD+jgvr2PIfjk57AO3BesT9PV5otoxdXDgr6JpWYxNE9Zdej3NX+eEbrUIZnZh6W4xl9TZUVm5GSfTPAiAXErEnIjHHBMHRimNjbZ6C1cVmaym3LQ4AFE+pFY98IeibctPOS3sbO55C+6hGkrj7BjlcjkfY8h+umvs7/Nh9nHPHu9sn9t1cSiIhYH260nJpvBXHlwR9U1pK+3/WBX13+/rZue0vTdUkpGnU6LA2iV//auFMQwDkgm4p5/46TF9fPTs/unP/fI6G9p7XSlwBgJygxyqGblUfVd06eoybvvBl7QF04aYu9F8FCunW1bN19+FjQVCMsW/fXjizIAByQ4MsY+0JQZDyNMTKthJehwByhWAVQ6N9VLdPpGGbtqO4GFl7UawZF+SLMUddwHrRfTa93QXoo+NvCIDiWGrde4thVgExZvaPV88dFwC5s5QsHbe0KAtSboZYWblxe+FDFu4A5ArBKoZidGJKP2gvyXq5PeBkUpBnnf6rWsG6QyuUtVIZQP5plZQOs9KenQKvuYf241mVMYAcSrdfW/O2IDjtvzs5LYGzhqppAPlDsIqB0j6q2bb/Q2Xt72sMvZ6KpWbi6Lr7eNIdY1nFMoCc02FWUWL2EK76zMzdvvbBEQGQa9r/2i2i0M89QDrESgIXt6LLAgA5Q7CKQZt0x0Vj7EkC1eJa2X9Vw3YA+Ue46jMzd+va2UMCoBiiWKtWrSAoOsTK/aXNS7jm9F5AACBnCFYxUMbao2z7x33G6LTwSQFQCISrPiJUBYrm9mdnFhJraQkQoJCHWCXGBN/KAADWQrAKAAAGhnDVI8bMEqoCxfT19XPHaQkQnmCHWLn3fK24FQDIIYJVAAAwUBquLiX3JnioHxqbhqoMqgIKLW6Zt1jkCkuoQ6yssbMCADlFsAoAAAZOHw5vX/tgjwZ8Qq+/gbFWvrGReYtQFYAuctk4ft1dgL8RBCPEIVYMrQKQZwSrAABgaDTgy3r9Ea72m5WbcWImbn92dk4AQNr9ViWK9xCuhiMdYmXtgoSDoVUAco1gFQAADJX2+ota5gW2pPaN1SFV2n6Bh1sAqxGuhseIBDPEiqFVAPKOYBUAAAzdir6rx4Xq1Z7Rrf/G2Ld1SFXamw8A1kC4GpalZOl4EEOsrDQYWgUg7whWAQCAF7K+q0daYl+nenXTrA4H063/f7x67rgAwFNouBq3zATXX/9lC2UBtAOwVKsCyD2CVQAA4JX/uHbuPNWrG6dVqu7b13U4GFv/AayHXjOixGjl6iWB12x7+KPXoiSaEwDIOYJVAADgnU71qvZezR7wCVifzop70G4m91645cJpAYAN0HBVF2akHdxx7fVUOsTK43YA7vc2z+IegCIgWAUAAN7qPOBba97KtqfykP+odNu/htC3rp6t00sVQC/o9WTFYEGuvR4y1p4Qb9k5AYACIFgFAADeu3397Nyt6x+8QMD6kDRQTYzZw7Z/AP2g15VV1154RIdYiY+suEXRc/RXBVAIBKsAACAYBKyphwJVJi4D6De99mrv1bQ9AItb3tAdCrrlXnxjPPw9AUCfEKwCAIDgdAJWDRfdE9yctB/y8/ygb9OhVC7UWGrd+88EqgAGLa1evXq2ng4XZPeAN3wcYhW1/B+sBQC9UhIAAIBAZeHi/PPjU7OtSCaN2HfESE20XiZ8Nvtm3j04v/v1NYJUAMOX9XGe0+O5l6YmIysH3crPq8ZIVfJx7Q2Kvg+O7ty/6L7wVfEAQ6sAFA3BKgAACF72EDenx+j3D4xL0joo1r5ijBnPfkooD/tambrofrcL7vMLzda90wyjeogP1XEhV+jltbow7xXr3uosbunnnZBVr73ZApciaB2AdIiVMUfFCwytAlAsBKsAACBXbn92RkNJPeT58alaWslq7D+52GXcw4f9dlWqtQvuofiyNebCcuvuAmHqo6w1+rV6S4YvuAAvbqVfO63qrslw2VJLGtJDy8t39cNCOdoy9NeGMck3UmArQ1a99jbjZDwS84r77ot6/c0qWlfayHXYrvEjDSvWLUgZve7/SZLSeSmYJIrmI2uHH6zq0KrrDK0CUCwEqwAAILdWVrLq99Nq1lbiAlb7oqz9sN+PwNWu+l4jrUg15n+3bLLQai3NE6Q+3e3rZ/XDnGDd3HmgH+Ylh9y5k34QXhteya69etwPOavje6ul0pZxa5OqC1y/Z6zd5haT/n/ZP66t9eu4C7IOZ0qvj+7n/x/3878Ra/5kI2ksl6Sx+ClbzqvjU+5rI9PiA4ZWASggglUAAFAYK6tZOzoP++6h/UV90HeB599Z7VVnbdWIqa6ocn0q3cbfDgLsojGmkQUCn2sQIHG00Gz+tUGICqCIsmvfvKDXakbsQfGAbSUnBAAKhmAVAAAU2oqH/fkn/TwNYGXLlkeHg9y9u0hYCgAYNPe+JOVY6uIDKzduL3y4IABQMASrAAAAXcjCUwJUAIAvqkbsK+IBayzVqgAKKRIAAAAAABCUcrRlr8jQh9Klmq2lCwIABUSwCgAAAABAQEYnpsQYe1T8MEdLHABFRbAKAAAAAEAgtLeqMy2eVKsmxpwWACgoeqwCAAAAABCOqjfVqlZufn3t7LwAQEERrAIAAAAAEIDq+JRUomRGPKlWtcbOCgAUGK0AAAAAAAAIw5gY40tvVYlb0WUBgAKjYhUAAAAAAM9tn9gnYuxF8cfcVwtnGwIABUbFKgAAAAAAHnvupSn9UBdPWgAohlYBABWrAAAAAAB4S/uqOrt9agHA0CoAaKNiFQAAAAAAD2Wh6lhk7UnxCEOrAKCNYBUAAAAAAM9Ux/fqh7FKnPZVrYk/FhlaBQBtBKsAAAAAAHhkdPyAfthWKSUfiV+hqjrP0CoAaKPHKgAAAAAAT6DVo5W4IkutJVlcOC/9kv53oorYRHZU4pGPxHoXqkrUMrQBAIAMwSoAAAAAAE9WFR0gJTK/fWLfojVGf8zqx+Xlu5sKWzVMLZW2iHG/WrN1T/87h03c8mdQ1cPmqFYFgAcIVgEAAAAAeIItsqWaiP2oEo9onLrgfkiPz7NjYUXYqgGptRKJfUzjPZOkPyn91P1cWUqWNEwdd8er5XjkoLRDXC9RrQoADyNYBQAAAACgW8aMm3YQqiGqrAhbF6UdtOrHL93ReMyvUHPHs+540R3jLkytuV/H2zB1BapVAWAVglUAAAAAADajHbaqSfe5GLFZUepaP/ehf++h7/qMalUAeFQkAAAAAAAAj0e1KgCsgYpVAAAAAACwNis3o4RqVQBYC8EqAAAAAABYkzV29quFDxoCAHgEwSoAAAAAAHiUlZu3r587LQCANdFjFQAAAAAAPCJKzB4BADwWwSoAAAAAAHiYMbMMrAKAJ6MVAAAAAAAAeMDKzVvXztYFAPBEVKwCAAAAAID7aAEAAN0hWAUAAAAAAG20AACArhGsAgAAAAAAderWVVoAAEC36LEKAAAAAEDRWbm5lNx7WwAAXaNiFQAAAACAInOhqvZVXVw4vygAgK4RrAIAAAAAUFDWyjc2iV+nryoArB/BKgAAAAAAxWQliffcXjizIACAdSNYBQAAAACgeKyNzFuEqgCwcQyvAgAAWIfq+F6RLVuktCxikvaPGWl/Yo0xT/v3jbU2+7n6jVi3zG1MS5rNpiwunBcAAPpNt/9LbN6+/dnZOQEAbBjBKgAAwBqqP5iS8lI7NNXA1AWiaRjabN2r6j92Ry071PdWfXySL7OPOiDkT+5oZJ83tu/cvyjZfydj9fPl5buErgCAnkhDVd3+f51KVQDYLIJVAABQeFqFWo62aDnp/USz2Q5NJ6Udluox7o5aJR6pStO2f9L9n20e/u6TmBU/11j9v2jZqvt1Oz9DH3Q1aP1c2qGrflzYPrFvUf9dq4/EkZXbn30oAACsi5WbcWL2fLVwpiEAgE0jWAUAAIWjQWqptEW35RsNNpeStAp1rztezI7xStNWs/Qz+2C6C043y5jx7L8zmX7X5ahp6GqtBq4Nd1xwx+fbd+5PK400aG22IllcOCsAADyOe7u71Ezuvb64cH5RAAA9QbAKAAAKYWVVaradXytQX9XDBZe19JHTZy5wdd+60NXslSSNXhvSrm7VoPXy6M79DSFkBQA8yrr3kHdvXz1bFwBATxGsAgCAXHvupam0MjULU7Uq9efleGTc/Vg1/QkDKUPti5oeGrRWYqux8Lz7/mlZEbLevnZOAAAFZuVmEpm3vr56dl5yRBdLK1FFrFssvX3tQ89XRgHkGcEqAADInQcPXOlO/0n3Q++kYapkYWoOmfTPaSZXhqzbd+4/rU+bzZaxVLECQKGkVapLrbvHF6/nZ+t/5/19KVna5r57WNrDJGcEAIaEYBUAAOTGqupUfeA6HNn8hqmP0wlZ3adHpR2yvutC1kbicuavrxKwAkCOWV1ci1vmra8WzjYkJ1YHqm6xNA1VjZg5AYAhIlgFAADB+9ud+ySSB9WplXhEPwa8y79nau5rMF2J7bT7/Lw7frl9Yt+8NUKbAADIlzRQtca8m7dt/6MTU9JM7q4KVAHADwSrAAAgWNtdoOqeJE3S7p36i8jaScHj7HVfH/066cCrE+02AfRhBYBu3JW7i2UZudTeEeDNup1174GL7ndz2gWqF/IWqOoulEgSYxNdIBx5R9qLhQDgFYJVAAAQnM6Wf/dMqUHhO7GYcUF3jBl3X7hT0m4TMDvqAlZ6sALAky0upH1K9zw/PlVLYjnqEs1XjUn7ew4667PZN/Puw4Vmcu909nvLjc57fLYL5T1jLO/xALxFsAoAAIJRHZ+Scnz/Yesd7SNqKF/ZqJoRc8p9LQ+6z99yAWuDgBUAnizrW3pIP//bnfv2xhK9am3yojEPLfD18p3JZt823HLivFjzb83k7vm8halqVaD6TnsXCm/yAPxGsAoAAEJSc8cptvz3jm5rrcT2C/cgO+e+O+uOhgAAnuo/rp3T3tV66HClaqm0ZdwFgy+6746540WXENbcRbYm66EBqthFMWbB/VpftowstMrRwuKn+RlE9QST7jjKezyAkBCsAgAAr2kFy/Ly3W2VqHJYjD0q6ItsyNXk6M59dWPMr5aWqV4FgG5lFaTz2fEQDV1ly5ZquRVVrU2qK/+ZMdFiM07S6tOChKf3ua+LlKMR00xMrRzLURckHxQACAzBKgAA8JI+cFXiER1MNVmORz7SHxL0m7YHmBOb9l/9h+0T+27eus5wKwDYjCx0zd3W/Y1K39+jiiwlS9vcd99xi3ozAgCBIlgFAADe6VSpuk9PZpPsMVhj7kH3/3YB6+z2nVPvLrWE6lUAwKasClQPu0XTw4ZFUwCBiwQAAMAjoxP7dVLF7ko8ct19JFQdHiPG1EWsVguPadgNAMBGjE6k7yEaqNZdoPqFe385SqgKIA+oWAUAAF6ojk9JpZQYm8h7kWVboEf2VmI7nog5tH1i3zytAQAA3dJFOfeebqzVPt4j70jacgYA8oOKVQAAMHTbd+7TDzpF+boxQqjqn5p7ML7oPh7d/tIUz8QAgCfSQHV0Z3sHiju+MMaedB9rAgA5Q8UqAAAYKvfg5b61r5Vj99BlDdsC/ZW2BrBiq9t37n97qWXouwoAeIgGqkYrVEUm3XffcYtykwIAOUawCgAAhibrp3rYZXbHKIMMg3tanhFrX3Gf/XN1fOom4SpCs31in3v5muFfcqy1tNZAXqTtfGJrEgJVAAVDKwAAADBwOhk42yL4nvvmmCAsxuxwD9C/d5+N6cM0EIo0VBWpuyPx4KgLELj0/by9SKrtfD7StjGmHa4CQCEQrAIAgIHShzBpTwa+SD/VoI0RrgJAMel7ebZQoe/n77n3gy/cx70CAAVDsIqBsiLftD8AugNOvjGmtSgACiML4LZVShUqWvKBcBUAikl7otfL8cgXLJICKDKCVQzU19c+eN1a85aLVm8KisxlqnIpTszE7c8+XBAAhZAFby6IG7ku1owL8oJwFQAKplTaMi7GHDXtgBUACotgFQN3+/rZuSgxe1ywdlyoXi0a6yLVG4kxe25f+2DPVwtnGwKgEB6Eqvai+1gT5A3hKgAAAAqHYBVDoYGaC9aORC3zgoiZEwLW3Gtv+7dv37p+buLrq2fnBUBhZD1VCVXzb0W4Sps9AAAA5B/BKoZKA9Zb184eWtEegIA1f3Tb//Fmcu+FP149d1wAFEpnUBWhamGMVaLkfwhbQwEAAFAABKvwgrYHuHX9gxcSa9+m/2pupH1UtSpZq5MXF84zpAoopnRQlRCqFocxO8rxyLFsWjQAAACQWyUj9pSgbxKb/B9B176+fu748+NT55NYjrpc7qD7ISMIjwvHk8i8xZb/9VleXm5U4ohrch8lsWFY2gC1gzXznrsmMKiqYNybt76HN557aWrWvRcIAAAAkEelv7ny5lsCeCQbaHTIBayzrdiedA9nk0LAGoS0j2pkfnnr2tm6YN22fXqo4T5wTUYujO7crxeFurt6TwuKyOi0aPfxcnV8an5xgXAVAAAA+UMrAHgrG3C1Z0X/Vfjrfh/VW1cJVYGiGx0/oB9msmANxWUia08KbSAAAACQUwSr8F6n/6p7QJ8Vhlv5Ju2jmhizhz6qAFR1fEo/7DAix6Q47AaPIhgrx/bUd+m3Ck9Yd0PpDoarAQCAnigJEAithHx+fGqO/que0CpiY9++fe3ceQGAB8ZM3PpI8stm3zbcu9CC+86X7nsNseZPNpLGcsl9nln89Oz9z6s/mKrpx3IrqlqbVE0iNSNJzWU8f+d+jWrW9qYjV+9v7g/zivsw40L347QEwLDZ9tn1PW4iAQBALxCsIigr+68mkb3ontZqQsA6UJ0+qkutu8epUAWwUjqsytj3JF9bv232zbz78Hki9nKrtTS/3uvfypD1cUa/f2BcktYrGkS6a+2kMaJVdXl4jzPWmHfcR12IawgwRNkJRcUqAADoCYJVBCkLWF8YnZiaNmLfcXfJY4J+03BhLk7Mu19df3pAAKBY2i0Akrr7Zq+Ez7pgc1ErUsWaXzWTu+cHsZB0+7MzC+6DHif0+8+9NDUZWTnofjOv5iBk3aYtAdyfaffXV6laxfDozYw7kcYFAACgBwhWETTtv1od33u+Utoy4x6DtRqG6tXe0z6q89aYd93D8LwAwNrGcjCsymaVqReayb3Tw67Kz6658+59rlqOtuzNFhJrEuh7XVqJ2255MC/AEFTH35DlVjJeiSMqVgEAQE8QrCJ42YMv/Vf7QLf9i7FHbl87d1oA4DGyFgAXJVxeLyBl73NzeqzYqVGT8N7rTGTtydGd+15w7ysCDFopSk+ZSQEAAOiRSICc0PYAt66dPdQS+3o6WKk4E5d7rh2omtlmcu8FQlUAT9JuASB1CbOvqgaqlxJj9ty+9sGeEKrydafGresfvGCteSt7rwtNzR0Hq+N56BiB0Bh3c+P8kwAAAPQIwSpy5z+unTsf+EPnMKUhQ5yYiVtXz9YZTgWgC2G2AEjfH+zroQSqq2nAupTcm9BFMAlrIdG4cOuYMDwIA6aLQM3E1AwVqwAAoIcIVpFb+tAZJWaPe4abE6pXn8a6SPVGp2orGw4GAE80OjEl5Sj5SMKiC0jHNZS85RbiJGC6+KWLYFHLvBDYQmJ1JKpMCzBApUhMOU6r6wEAAHqGYBW51mkPkD50inwsBKyP0G3/xti3b10/N8FwKgDdyrZyTxtjwpmu7cLHbAHpSJ4q8vW9Lq1ebS8khsBYY37x3EtTAgxC9cV/luVExozYnwsAAEAPEayiENoB6wev0x7gIWnVlvZR/ePVc8cFANan6hZlQmoB8LGGj3ldQEqrV91CYkCtAWrClmwMwLP/5b+7KL+1rRLb3wsAAECPEayiUDpDP9IHz+IGrGkfVduKJ/JWtQVgMLRXYSWqzEgYA6usXvN1ca0I1zttDZAuIvofrrpc3h59niFW6CMNVUfKW00lHjklYQ7YAwAAniNYRSGlPemK2H/1wTbYPbcXziwIAGxMLYSBVdrqRAdU6TVfCkQXEW0UT7g3t2/EY0bkFSHsQp/o9n8Tl7e5TzVUfVUAAAD6oCRAQWUDmg49Pz4124qSj7I+gUZyKO2jGplfLrXuHl+8ToUqgI3TatUgBsDoroQkfv1WQReRbn92ZmH0+wf22KR10b2xbRNPJe0hVnUpoLRP8ZYtUlp2Nx+JaOdZ9//2Wq91NyWrf777Z/cXgq1Ebm0jkcREsuzu5hc/PSto069rORoxzcTUKqX4I/fFCqcPNAYifY2Uy+68M+4eOVr3uWez0iTOPYSm+oOpB+85og++7U94z8FK+jopt1r3r5Gd14la/VrpvE7cj7ufZwv7GiFYReFlAevE6MTUtLsYvOOuCGOSH3qlO9FM7s0SqALokZq7Vh4Un7lQVXclfLVwpiEF5nm4qrfiiyaKcr9rREOcSlzRnhT6XW2BkD6ANFv3qvqPpV21q8ez2fcl+/jsql/qyxWfN9zxJ3foe3tj+879Dcl+3fQ/ol9e96W9/dmHUhTpg+BS4gLVpar78x92C0CH3RekKigsfU1Umsnjzr1adnTOtW7PPf28kX1+/9xzv3q6Ba6I5x78M/r9N0RacXtUpP5A+8UpSw9e97Xsp34v+9h5/a987a9+3S8K7zm58tj7kwfXxs7H763417636pfpvE4W5cHrZPW10eqv+/XV/IatuazOAzZj+0tTdXfqvyNhnx96GZt3F7B38zqoBcDgZdWqc14Hq/dD1XTRDE66cGjsSfHjfS0LVM2JpeW7J/LY9zYN+JppXqzPmqJBn3twmXQPLvow8qJ7cBl3789ugUJ6G/pZu+B+Xf16fu7+w/PuIfdLSaJOxbaVKMnNQ2+n4rATHOiPNcumVllKDrqvweGef237xdrZW9fP1QU9sfLcM+7DUsW9JprJ+CDOPfdfbLj/5Jfu3Lvszr2Gnnv6wrQ5O/dWeu6lqcnI2ksyfHO3rn1wSApKr4el0hb3MkseVBNGybi7Po676+N/TV/vWrlvetx65+H3nPuv+/v/NOdBWohWBKnta2Ryr7/3Jw+ujZfdr/u5u17MZ3sDbLMVyeJCfl4fBKvAGp4fn6olsRyVdngQ1nmi21+NffvWtXPnBQB6yAWrtUpsvR38l/ZUTWJ6SK/huYl9M5Exx2R4ch2ouoBBt8PdD/hcuKM9Pcfdg8srPX+YXQfbrhzR8+G8e9D+N+MeevWhxj3g2FAeeJ/buU8iu2LroVZdte5VXbBay4ID/Tr/0zC/zhvmglX3B5qVAXKvUnv72geSF51zrxOkZueeCwhkctjnntEiBxcouHPvcojn3tMQrA5PurgUj+inRiuwXbA67oLVV9zrS3uXjw9rcWnFe84FDdLcuTmf/ibdxc49mwoGb/VrJQtSX3HXyFeHcY3U4i/37WkXrF4uxy6M70HI+t2/e0NsKRpaZqPV2gSrwBOMjr8xbqLoo+yi4/X5cr+P6vLd40WYfA1g8EZ3TvldrSr2NRaVHm/7zqlT7ms0LYOV20B19PsHxLSW0wohd0y6B8i9AQR8jWxHy2kXiFzWoKfZMtbXqhENzZzdUZJWXLeFGKA+Rhq+WRnoOeGC1eMuWD0hAVu5kJGde68OKyRYh86596tO1ZbP5143CFYHa2W1oQZkLizT+7H2Ip6nVfpZ0Hre3Tv+T3fxPt9pl0HI2n+d66TPr5XVIetGronPj6f3CWNJZC/KkFiTnKfHKvAEtxc+1BW3Fzzvv6rvUefjxLz91XW2vgLoD3cd1JvhV8RXxszeuvoBoeoTLLXuHqlEI68M6L3sfqDabLlANUd9vv9WKyglraAcl/aDymEXLrQfVPwvWdAtftPuYWta2n0i593x7qj2QnN/Zbd9fdjNUZi6UvqAawb7kOv+7r0dZvck7aFkW9LWD+7Gd1La597BPJx7eapiRe+tDMik/dr/RSUemZQAZCHetPtsOvuhOXf8z+0797uwVey9lsnVdvBhS8P3qKL3xDqfbNL90DsuVPU2eDfp79FMVmKrgcacZNfEDS06DfE+wUj0LBWrQJfS9gAl98bgT/9V+qgCGJisT+cp8VOh+6utx+j3D4ybpHVD+kfvjhtaFeceAn+VlwrVzsOKTR9W7F4XrP6i/UCQD1nVyJz74/3KJeLeBKz3K1bt8CpRciewvq6dc28pWdrmgtW9LmH6ed7OPb2Xb1exery4sQYqVvurE6h2qrLdDx30NSDbgIb7s5xwweqFjVYq4oGV10n38bALVrVCtSYB0oDVvR7eLZfc62L56a+L+xWrsf1ChucUwSqwTj70X9Vt/1Fk3/3j1XPHBQD6TG/u3cOT9latiW8YVrVu2yf21d1N91HprSxQtXUXDPxKcqJdJVdJJ83rw0pQg5E2puH+Iuu+BKwEq30QSLC6OigoyLk3a8Sc1iHaf7zqfx9cgtX+WBWovpOnhYS13A/SCFg3xN3T5fI6mS7QL5tfluPk5pPuRXwJViMBsC768H7r2tlDLbGvp4Oi2lvxB0Xb6sw2k3svEKoCGKBJ8XTlO4nMW4Sq6+NuwI9n71+9oLsnLiXG7L51/YMX8hSqPuceVpxt7iHlaDke+ULD6JwHO6rmgp059/rQB5SD23dOmWr7oQUYmNGd+/WDtiyoF+zc010heu7tdV8Dzr2C0UBV/97dp7vdcVEXlPIeqiptkVFph2LaS3uM13539PWyvf16yeV10liZca8LXVQ9OPqSvib2is8IVoEN+o9r587rQ6RbUHyrhw+oj5M+uEYt88Ktq2frDKcCMEju5mZaPOSui8dphbJ++h6igbRszv1A9fa1D/a4v4fLkhOdh1sj0aEChTqrtQNWsR+5z8e2t0NmoK/SoOClfRoUzBT53HMX148lC5k49/JPA6NRt4glBQtUV1sdsPLaX5u+XrY/CODzfp3M7kXkPXds8zlwJ1gFNun29bNzug1V2id9r6tXdWvlTffgukcfXKnKAjBoOrTKXYpeFd+4a2OzdW9WsCEaSLf7aq5bbgPV9OF24kG1kDH2ZAFDndX2ugfd/9t9PLr9JaqI0B+rzr3r7pNjRT/3VoRM9e1U8OXWiursU0UNVFdb/dr/7kv7BW3bd7Z30rjjo6xFTk0KoF29OnJNNHDf6WfgTrAK9ECnPYBWlLrv6irzpgNW7aPqHure1qpYKrIADNG0jw+41thZqvc3xxqznmA6t4Gqeu7F+w8rx3i4fYQRY+ruzkYD1rHvUkWEHsr66Oq5914aFFgzLnig3Q9bQ6axUU8DBayfBuXZtv+0Otu0Z3dgpQev/cK3xlix+PRaWs3vviZSPGMucNdwda+P1cwEq0APtQPWD17fZHsAfXg9Th9VAMOmN3IuwPSwWtXeuH3t3GnBpnRZtZrrQFWNTkwZY0o7KvHIdWPksOBx9KHmuvs4wxZN9EJWrbc7O/dmBI9Ty3oNTnPuhS973Y+J7oygOvtpHmqNkS3EFEoWKKeLTy5t/qjgr5dt+jUQ3UXj2bWwJAB6TtsDuA9z21+aqltrf2HaF8OnsekDbit++/bCmQUBgOGrRh6uitvYbrY/KDJatWqsnVzrH7ljLmqZd/PahkYXDsrRiBFjD0vc0soYHm6frupeM++5O5Znt++cenepddcuLpwXYD303HNhqnEXmcORtccE3ciGW9maC+Zm3ULXIIfnogc0ICvHVqsOD7uPRewfvGFZe4DJRMxbLlC7dOv6OSkCrVJvtnRRc6Qw2/67YNJqZpecuNfCrCTiBSpWgT7SQVNxy0w8tf/qij6qhKoAfFGOtvi41Wju9mcfcp3skaxq9X5LBW1Do7sm0mGJ1z54K7eh6ov/rB/Srf9UDK1buzVAe7CV18Mk4J8V1VdaeUWoul7t7dEnXaDg/ZRsPJBVWlKlujm1rK9ovQitAbKKzOlye6dITbCSya6FR5MoXawYOoJVoM8e6r/abg9wP2DVB1h3UZhdSu5N0EcVgG98bAPgFqFoAdBjxtoTnfcjbUPjFvmO5HlYYlX7qZryWKVUucjW/03ZW4kqv3cfxwhX0Y3sdaLVVxoUkApukFbvuQ/6NdxGuOq/By0v6N/dE+1ATQPW3L73ZKFqXavUCeEfKwtX7TviAYJVYEDSgPX6By+s6L96Sh9gtaqVASwAfKPVFb49AGi7FBahem8pWTpelPejdqgajaX9ChmSs3nG7HBfyyxcJeDB442OH9APY1mv0Jpgc4wZdwsb+rUkXPVYNnBopkgT3AdB70+za4m3U+I3anv7NVPPAmQ8WRquJlEy9OFv9FgFBqzTf1UAwG+T/q2S2zlBzxVlce+hUJUH3F4aq0TJ/1hK5B/c598IsEpWVaYhvLaPqAl6IwtX3eLYHuHc844GZG5B+D13L8Vgtv6oZQMVte/qx3nou5qFqifduT0t6JbxIYSmYhUAADzCJNavEhgrjdvXztEGABtCqNpnxuwoxyMfbX9pyoteZ/BHZ/u/xC3OvX5w4ao7997zbUJ2kWkF8faX9qUBmTGEqn1WzabE10M/B7LfvwtV01YfCAzBKgAAeJSRF8UjVpILAmxAOqiKULXvdGumFfvedwl4kHnQUzXtLUmfwD7Jeq7W87YlOkRZWwYdznadgGyA2hWLwYarnZ6qvGbC9dhWAGm3JCusOnfL3UmanwgA9IX9HdfjdYndNXm3YIPS/qrWTopH4iQ+LsA6Pftf/rt74Gptq8QlQtUBMDYdBvalC9SOLy6cFRQeCxqD0h7i8rk79z7m3BuOTqiqgxHp4T0Eeg5YqyFlPaS2AOlwM2vpqRq4J/VY1b/YSUG3Zt0xLwDQH7rNhWqP7r3mDobCbdyk+MTKQp6n1KN/RipbdVHqlBDsDIqxxuiEXq0wvykorLQCK0o+cgFTTTAg5qT7ZkE494aFUHXYAgtX20P9WjOEquF7fLC6JKelnPYE4UH+6W6anxCqAugjK5fFyDFBN+bMbkLVTUmScXeTJ74wYumtinUb3bnfvXTsUfdaflUwSNt0mJV7sJ3IwzARrN/ohLYASOoETANXLcf25Hcn9u3+I+feQKVDhyJLqOqDLFwd3bmvfvuav+dBZ6ifu9vm+S4HHttj1fw3abgH+ROCbswKAPSRW7zRbdDzgqe5KU2uyZtmzCvikSSx8wKsw9+6YMcaM0kVyJAYs8N9W88eHFEg2d/5NOfecJj2jpOZbFs6BuD+0CFCVX+0rz/To99/Qzw2ZuLWR4JcePLwqlL6IP+N4EnmzI+FShoA/WcJDLswmy4MYsP0YcxYWxNfWGncXvhwQYAuabDTSmQssvakYHiM+YXQgqGIasZYQtUhsu1QiV2nA5D2x2TokJeMGG0DtMPHBT4N47W6XHiPzI0nBqvpVspE3hY8HpVRAAYkaznyseBxbrLQ1RNVYzyqujBUamN9SpE15cjqEKWaYJi2VWJ7TIfhoRi0BUA5diET596wVculkaNUjPdX9vWlP6bHTBLp8Lwxnyq4s9dN3TDPKFeip/0E848yJ2w/fZwTVEYBGKhmuthF/9C1sRDYA6XSFq+2slmhDQC69+zfvSHLiRkzJp1Oj+HT/raTgqKYNmIPCobO2HRWSk3QF1k4NkZ/TO9VKzpEz68K7jHC+Px5arCaYvvpWrSP33EBgAGi//VjaVuW84LN08FVPmnZzwXo0kg5MpXY/l7gC2OsPTo67nWfO/SAVqvSAsAv5dgepddq39Tce81Fgf+MGdcK7u+2e+EOlbYA4HWTT10Fq+n20yStXMUD9PEDMBzt/tc3BQ/QlqVnjJia+GOR/qrolgY71pppoUrLK0ZEh+Ex1CX/poVzzyvu3NNUlV6rPaZ9VWl5EZasgntmmO0xsv+2Lj7VBLnTXcWqaqUPrWw/baOPH4ChSftfs+39ActCVy9ZI98TT1gRQlV0zRhr3PGOhMV2DmvlG/fZTfedS6sP/fGVP1fCYtwTxzSVc/kVaLXq0889a28Efu5VK1FlRtAzWTh2mJYX4cmGuo3J8NTc74HzMadK3f5EfWi1v5UT7taILR6JvC4AMES67d3+Lu1/PSnFdlOW2VHRS8bamntCFi/YhDYA6Eq7WlWmXbhTE/9pkLPo7ql14eC8e9D638vLdxcWF84/sYBh9PsH9MN4kizXYoledb/KK+7XqElamOY3Y6Kfi6QVXhRp5NO0hFGFlZ577i1u3iWkl92593k3555y59+4tJJx9+++EtK5506+w8+9NFX/+upZQU9oMFcXhKhaju3J707s2/3H6+dkkDSQ1ypnQwV5bnUdrGY/+7i0RG+Mhpn0D9uc+UcqaAB4QPtfm8IHq1Sr9lBaUWZMTfzB+y26YiUxzs/Fby7TkXkj9kQzWbrcTZiz0u3PzuiHhew478IS/f5kZDXUsvpn9znkqZajspaszglyRV+H2kdX/Jaeey5IfXe51V2Qupo7/zrn3px+3/259dw7KO3KRa/PPWkvws8LNkUX8NyL/WSOwrH1VmD7v5DwFKZ9LmhLgOOLCwNdbBjLWZVz4V47T7OuYFW3n9rfpdtPP5aioo8fAE9o/2t3TdZ+q0XdVkJblt6r+vTAYKO4IcBTVMffkOXEjldiMyl+0geQORslv7z9We96BmcVaPPPj0/Nu3eEepL2/PM2YDViop+7xZs5F2oJcmVS/K1WTc+9qGXe/WrhbEN6yJ1/89I+/2bduXfU54DVJC1d1JgXbFjWAmDahL1TLA3DrLULbhH9svu0kYj9slWO0velxU8fPkeqP5iqlVtR1dqk6hZPXhQ9z619xS1idnpmBxmWZS0BLsiA5lXobhN3Dr4nYbPZtw1r0mvJ5/dfO3fvLq61WKWvn9Ky1PT1E1sZd1/3/+r+fa361+eM3AWt66tYlYJvPw2kj99fdp0xS8k9u+3TQwJg/b6ZPCWVpS3ujdfK1isHxGuxW+xppVvwire1pCl7BD21RbZUE49ayJWW7zYEeIpyHOsN+oyH7Q87VXKzLoS5LH3yVbvqpuEe3qbdx+Om1frIPbJ4t7vMtAdY6XtV19WCy8vph5vlWE5J7xgXEozLg3BgeKy94V4fA63MN6Z3OwF0l4NJK6a9k557ccu81etAdbXs1z80OjF12Yh9x8tzz0QHR8ffmLm98KFgw2oB9hFWndYz59393f9stZbmu63YXhW0znc+ced9tRxt2eu+Hv8k7QFpKqSgrFqJ7XvPvTT12oBaZOh7TahNxtNrqXso/lUzuXt+PdX+2eunkX33/orq/Wr/kFqqdGFDfwj7WxeqGrkkxaKVUS+I5/6y6zfuW/uxC1bfLsdbGs3WXQJWYB2+/fsz0oqWtlWaI4ddsHqzWb53etu83+eQuybXC9j/es5dk7m49Vj7Zsd68/5+69oHud86hM0b3TnlXif2P9w328QfLi+zR/549dwJGaDn21VVY60o+R/GmB3iF5sYsyer9Bua7RP79IN73zTDf9+0dvbW9XN1CZQGLJV45P8Rjx6MdRBVFNl33bl3XAbMnX+1JLIXfQxXbSvZ4YLVnob4Ht0zzLn7hb7dE2b9MecC28pts+rCE83WvdMbaX/RDX3NL5fM3ihJfhFaSObej3b3+/0o0NdOeh01kfnl0vLd4/167Si3IDWdLUjVJOyA9VQkG6DbT92Hgb9ZDZn3LQC++UG6mH/UXUD3luORL9znJ90xdueHZwTAk/35R7+WOy+/rxf018rNynXbXpWuSwiVoKX0ejyQ7SzeoC1LX+h2HfFHQ4AuuPse61LM190dqrYGGX7Zqk4Xb8UTgw5VlVavuuOmMdHO7OvhE+MevicFuaEP3BqWu5NOwzUvzr04MRPDCFWVVq8uJfcmrLU3xDNR5G2rlBDUggrG9D1I7KFb1z944fa1D070MxjT1/zXV39zXP9bibVv639bAqG9obNe5f0U1GtHA1W36DjbTO69cOvq2Xo/Xzvq9vWzc/racTdxb4X02lnLhoLVVJw+1Pb1C+2RG4H08au5i+j0g+/aaRewXnSfHLnz8hnjDgHwMN32r+eH+3S3Oy5GiXyUrZqpWmmpMpMtWnhL+1+7N6O3pCgCacsSoshG/vRXJVhFl3Qrn1adRC2ZjlrmhaEGrC5QiRKz5/bCmaEOXltq3bXuOOJbwJP2WEOu6Lnnwps92bk3J0M89zTU7PfW/6fRIKKZLO3xLSRw596LgnXrTHOXMFgNxfQ8uH3t3MCzi6+vnzuu739DvQ6sQ9Yvd1L6RFulBPXaETk1qEB1NQ1YQ3rtrGXDwWr2ID/wlfihaMrr4jkNfuJ4pL4iEOqoub9lbZasFazTd17+jfE9JAIGJW2dYY1uHX3P2NgtQjy6mm+MOew+eLela7VsJ0ERWrTcdH/WuqAvrHhVsQqsS1at2RhawGrt9SUXqAw72FE6IGqLbPkmTqJ/th4VQmif1efHQ201hyfR1/2ta2cPDSdgNXO3rp+bGHQY8Dj6+9CQwKdzz5mscu5tRBgVh9lOiWGEYit1rgNagehe/9+I5/pctVp1r51XxHNplarY129d++AtXjsbt/GKVUkf5OuS/+2nc4FURo25v8wnXfRr7tBEtd0e4OWzBKworHTb/660SrVeWq7oosPME356tRKNvKf/jveahahapQVAH0Uetb4wVKxig9YKWNsPDn2UVsst/YMvwY7Sr8NylNy01vp03dRrTE2QWwMPWN25p/898Yx+HVxo41MRUk2KOOh0E8KpVjVzaZXqkHdKrKQViHHLTPi+vbufVas64Et8f7/L2qfcunbuvHgilNfOapsKVlP53n7aCKGP37e73ncX/ZGPuvvZaXsADZK0inWM9gAoEl1MyPqo6rb/L7SPquniJlP7Fksft4r0SrYIlOf+16G0ZQHggZUBqz446BbJ7Ea9t0GP+zWjJHrdp1C14+vr53TnxQm7YqLzsC2XttQEufdIwNqPh2T3a2qVuHgqHUxm/VkkLEu5JlgP/6tV3fuanmc+vv+k779aue1hz+GV+lG1qqG8+4X9fu140j5lLZ3XTkjh6qaD1VxvP7VyOpBq1Wl3jMu6JDNZ/9Vp7S8ZRDUesEEr+qjqlv6L6bZ/s74VRGOjo0EMgmv3vw5u+0RXAmjLgt6xNvmTAD3QCViXlu/W24Nl7g9J6EXAavXm38cHkw7bdkE8YZJWTVAY9wNWfUju5eJGuqBh9vgYKD3MerMgHJWi7wm65n21qoaqV8/WxWN6/mvPYZ/D1T5VrdaMz0U57V02Xl8/QwtXN1+xqvK5/TSIPn7aIzISc1Q2pibt9gBawbqb/qvIo7/+8Oz9Pqrtau2NTkVN/70ZDWl9lvW/flfyJ5S2LGGz/mxZMmKKMiATA6J9R/UhQreZWTEv9CBgtcbYIz6Hqmo5WdLjtCf9Ho07t2uCwkkDVhcCrZoAveGA1Ro76/u5p1x44c1OoiRJtgm6MjoxJV73xwwgVO3oDHTzOlxNWnt72YO4HPkcqrYr/f1flLofrv5DCD1XexKs5nT7qfctALIQtL7eyrs11NqDe9r9V9OBPkDg0j6q7SrVmS76qHYnEl3E8L4/lVsU0uux19tu1imItiwAwuHCVdlswKrb6/949Zz3g1w1UHYLi/oA5UX/PSv2WUGh6bm3yYB1bhhTzzdCwwtfWnGwqLEu0+Jrf8yAQtUOPQ/iJHrd1+pDYyLdtt+7Zzxf2wAEU+n/QDNObiZivS/k7E3FqsrX9tOPA+njV9MekdIz9/uv1jWQov8qQrSqj+r1JEqOmd69UVZLS5WZICq7rbwteWHlBNWqAPphdcCaBSDdhDw2bplwdmzZ9PhcPOAeYAlWkdpowBq1TFiLrZ6ce25Rg+FVXdD+mO4Z+1XxkQ5rCyxU7bjfc9XPzKg6ElWmpQeyfq3rbNM4IMa+HUKl/0r/ce2c7tC+4F43Xi9k9yxYzdX206b/gcSdXe9LHI/UpQ+ysFYD1rT/Ku0BEALdop9VWz/oo9qHNzVj0tYbY+K5HPW/vplV4AJA39wPWI3ZnZj0wW9enhzyzIX1cGLcn8V4UbHqFjvZjoyHdALWltjXbfve5fHnnjFBtABYyQWaDfEAixpdq7mQpHf7wnslG5QoAdNz11rrZWbk3vtf7VE7gEnj5w7HuVvXzp2XADVb96w7Zn0aBrha7ypWJTfbT0Pp47fD/eX1s8S8Jg/6r47RfxU++9YtNGR9VOuleOT6xvuodqccV04GMfCt3f869D6VtAAAMDBfXz2rx3zcMruzaea6g2l1yGPdPwuqmCAxiR5eDIRLRAh3sKb/cA/9t699sEcXN9y5Nyerzz33UB0ty5wExkhEz/CA+NofM5S+wk/z9fVzx62HxR/ZsKnNB6JJ4l+1qobyoVX6r6AtjUqlLd8kkTkknuppsJoKe/vpzRD6+KUhkpiPZDBqWXsA+q/CO+0+qum2/0PaR1WrrQezQpgGt7vFc+kikfV728RTzAXSliU/jD8Li2xZxDC5h9f2tsWWTK8KWPUIrFo1rVTTg3AHQdDFjVvXzh7Kzr056QSsRubzECzBb562AQimr3A3tJWOJwMVH1KOypsuWTXGePf6yUMorwvfxtrLvvSsXq3nwWrg209nfa9WzapGp3swsGqd0v6r14X+q/CAngfftgdTabh5MTLm5KC3XBgbn7zzwwDOg1K6kyDM/tcMrCo0tizCB2sFrLaV/FIA9J2eeysD1pArrhAG7Y+ZVS56JW+vfT23XUjmXfGHu/d8RTahOv6GfvCrYtXKzbyE8ta4V43x81zofcWqCnP76c1QBlZFYno4sGpdqiv7r/5lF+0BMFir+qieavdR7e+2/yeouWNGf08+S/tfJ0HuJGBgFQBvdAJWDXluL3zoRa/SbrV7xiUChKpz7oVWcaXn3uj33xAExcf+mMHtkujGUrJ03MOq1b2j45s6Z8d9e/1otarkhM9VqyXpA30Ytr+VE265Z1gB4EZ4HzxoiFmJtky7k6Mmw1WTdv9VLXN/+87Lv2k0W3fttk+9bXmBHPj2789Iyy5pH9XDpXjksBdvWpFe49Ital4vJJl/lDn7u7Qn86SEQduyMLBqCKxEDdPdUOa+szLonRlA2DTEKZW26EOHftfotg7rPm8mS1Xj7h1NK3ml/aMAeqn6gympNBP3vpWeX+1vrAZH9/ReteZ+ZFIQhChJJn27Tua1Untx4fzi9ol9LjMyPmVGes5qxemGFlBLpbgq1o/76I64FV2WHLE2/QJfMGZoxVVr6kuwmv3Kx6Ulv5AwJn9qH78QJqTVsopRL7jfy95yPKJlEHPuePfOy2dubr1yQIBe0j6qxkYmcSuI5WblPV1Y8Oh2p1pubjl6Z9f7R7Z+8qZ4zcpsQDf23rdlQf8ZglVgTatDHA1SrQsCmq17nQfCF6V9/nzPiBmvxCO1tGCVTBXYlMeee+3zTc+970n78/QcvH/uebJgiadzf5+veHapzGW1aodWrZZ9KZjJRFEa2G1sZ4oOrvIrmM/d62c5WdIPp9319Zh4pG/Bqm4/tf8qb0sk/u8VD2Fg1d//yp2opbp4Ke2/Ouk+mXXh6mkXgtm/+WRKgM3QLfbl5ohb8G9Nuu++EyUuFPTyoTCZcd+4E1RuiMe0/7W7Js+5a/K0+C2Utiy5lJhkMfbnRKtqBZ5OAgWKaM0QJ3okxHkx+1xDnEcrZQhTgXXrMkB9cO41ddiiefh049wLjo/9MRNjcn1PrFWroxP7T7vz5bB4wp3rL8oGRda9fjw6991lK3c30fpcMLpz/6K2A/CpH3L/KlYlkO2nNpjKqL2RpF9LX9Wk3R5AK2qP3Hn5NxdoD4CN0j6qS/aeVru/Y2w8I74z8t6ff/Tr3c/84WfitZZbRIpEq8z9nbZu0x7dGJJWyzbi2J9gNTuYZI5c0xCnvKRvJYk+0D05QLVrhDjGkOEA66QLd+Vy2b3xxSvOPUkD0aVuA1TOvbzxqz+mlcbX187OS86597vz7n3Pm2DVmdzowr77s3zPp2vCveV7uWoD0OFjO4C+Bqspv7ef3pTldBu7177d9b72VjkWyDt3zZrk46zv5LsuILu5lNwVAlZ0I932n6SpztHSckXfYP0NAB+SXtR3fzN56tK2eX9f6wH0v57TylrB0GyReDHxaMviFoJV5MTKEEeMbW8UtPoQJp0AdVLaIY4eBKhAjzzu3Lvf//RBgKrHpLQDVOHcKx63sFwTj1hJLkgBfH317Pz2nfsb4k8LqJps9P7TuvdtT1oBaEWnVgRLHkWRfrvgUz/bvgernm8/9b5aVQdWOdPu3bwmQUnbA0ynwbrIafqv4kn0dV6OK8bdQEy67570rI9qV4yNT4os7xDfQ6B2/+ufu8/GxDcBtGXJO+3D5G5uxRe2NKKVQg0BApJOAV8R4nQGSMmDEEdf12mAamwW4mQzb7KNx4Q4wDp1GaDeP/ce9B5eEaJy4hVa7Nk2bvf6nJOCcG+TF4xH7QDKUq7JRvqsGlMTX9jkc8mp5eW7+uFzdx0XX/S/YlWV5Yh7kPdt+2koffxqkXg1KW9ddNiWC1i1hUHaf1WWrN36medDfjAw2ke1srTF3fTe1ZDvpAsnPe2j2pVaaaky4/5Mda+rVrX/9e/kbffpx+KTcNqyFEFDfKkaSKx/CwDACmmYE21pBznZFn73wtUA536I8/AAqRXVFYQ4wIatPveWHrN4wbmHbiXGvBiJJ6w0bi98uLEBSgHyrh1AlF5H1vX112uSV0O4xDQkp7RNw/ad+7WYqSGePLMMJFhNH+R9237alD3iOa3ii+ORuvhTFr9RNXnQf/X1Oy//ZoH+q/jrD8/KPXtX+6geduF7sIsHKxlj3A2BOeE+/UY85haVzrtwdV786X99U+7IcYEX3KNnw3jyvrOZAQJAP+iDU6m0xWU01siDSlQtHtCHsP+qW/iNjaqEOEBvrTz3zINKVD339H3iFRegjhOgYjPca6vmyzZu99vIbbXhWpaX7y74VH3oFkRrsn5etbBrRVGug/mk/WEhKlKwmv2XfNp+OhdIZdSY5wOr1qsmFXPdfZyTrP/q33zyU0GxpH1UtaQnkcOl5cpRa2wgfVS7Ui03R3SQ1SHvB1n51f961rxGH01fmMR+KZEnT6PWr+m8KCYNdOK4ohmNWW6lQaq+Lve6B69/SqvhOn2J2cIP9NTKqtRm617n3HtVj9XnHrAZ+lrzaxu3nZcC0V6gXvVZNeZ76/w3ZItsqfo0p6C0fLchOZatoX3py43XwKrdtWrVm2nPAfTx04FVlWjkPcmltP/qF+6T+p2Xzxh3CPJPK7DvvPy+Xvp2u+NiEiXHfNou0Tt2WvypBH2sbEiUD1WiobRlKYzEbKCnVL8YGX/upSkBhkFfe6M79+n7lu6ueM3Fpqf0/iWy9qL7wV+E1/8eCEP73NvfOfd0i9vFFefeYc499EHVp+eSvFcbrimxl8UTpn3tWZe70vLqufarhfMNyTHdNuQObwpzBlexKtkgq2FvPw2nj9+0e6XslRzT/qvSrshN+6+6lWjaA+TQmn1Uc87Y6Kh7Tc97P7AtdotMrXSw4PBuBAJoy1I07r2nIX6ZdMe8AAOQVsi1tyNqMcSk+7DXff/n+VwIBPyh514lqqR9lZL2df/n7tzb6x6cOfcwAOmwIm/kvdpwTR7df9p2i5F1KZXiqkdT6nO/E9C2a0S/NJ5UCQ++P7MdarXoTRfu1sVzf9n1Gwl5YNU61aTdf1VbBIzdefk3RisbkQ9aee1SGl3xq5fiEfd3bCalENI/50ENlX2W7SQ4IcMTSluWQim3/KqSiJOEdgDoOw11RifuV6fOuIej653KVEJVoH/03Ns+sU8/Te8X3dGpTJ3m3MOgpKGYR/JebbgWF5Q1BL1Ci7UBG3iwOuTtp963AMhCxaMF3OIynrUHOOmOMQ2XES7to5pt+z9UWq58odXJBbw5rksAf+ZssemmDN5iCG1ZiuirhbMN69ENWWLMqwL0ycpA1X1zVO9F3MdjxhgCfaCPVgeq6XOASQtLagIUW0MKyEZe/blrAqzD4CtWVZw+TA/6oe1GIH38aomxM1JYaf/Vi0L/1SBphea37u9Nsj6qkTEnC1xtUCstVWaCqMAeRv9rKyeoVvWaN1Wr7hpCn1X0xXNZqNMJVDXUoUIO6L/Rnfv1w0OBKucehskk/gRptqDBamnZrz93OtAM6NJQgtWhbD9tyuviOQ1g4nikzo2F1LL+q1rBOv2XXbQH8J0GqmmVcXvb/ylj44vF2fb/eMaYw+7DmHgu20lwSQYniLYshWblc/GHvidOCtAjz/7dG+lgHCPRIUIdYHBGxw90hlLNcO4B8Ny6rk3Lyy2ftt9zXR2w4VSsysC3n4bSx28sag9zQltN2v1XPxL6r3pLt/3f76O6XPmC1/BDquW4cjL9GvmuOdCqVVoAeM941WfVJC3KBtATz024QDWKdcHrojG2yLsqgIHKqlR3iJ572m6Dcw9Yk3uW+pMUkLaiEo9sWec1aovEXgWrz+e84tZKooc37yNDC1ZTg9l+2gihj58O+SlH6RZ4rGKN3buy/yrtAfzwjXvNZn1Ud5eblesF7aPahbRyd1I8ly0+DaL/9aVA2rIUWpykVczecEnYQdoBYDOe/S//vV2lauRwObbXDVXQwEBUx6fuV6mauMW5BzyFdY9ZAmxeTXIsah8Eq2og20/D6eM3XcCBVet0v//qtPZf/cuus4LB023/d9p9VNtVB7rtn9fuExkbHb3zwwAWBNr9r/t7M9ccQj9XrFtWNdAQf9AOABtWffGfxcRl7aX6MZVywODo1n9pt0RKq1QFAHLqrtz1qWJVWlLO9b1O4pbK3fF34onhVqyq/j5kax+/QVRgbYr2powknYKJp6tJuz2AVrDupT3AYP31h2c72/7fKxtznT6q3Uq/TjMaSvss63/9rvRPKG1Z4FgrF8Qj2g6AQQJYr799ccq9eMovVOIR954lrwqAgRjdmQ6H21GJ7UWqVAE8zfPjYe9MWlw471Ww6gKmcckx0z6oWO1IH7Jt37bqe98CIAsF61T8rVvNmuRjydoDaDjte2gVMu0RemdXWqU6o31U9aNgfSLRxRPvVw6zxagb0ntBtGXBSp71WTWR9m+m0hBdG53YbyIT7SjH9prkfEsc4JMsVJ2WuKU7zWoCoGu2uOdMTTzy1cL5hqxfQ/yR62DVtj9482ccfsWqKqUP8r3efjoXSB+/mvamFGxQ2h5Ag766e+zeRv/V3tLgv9NH1R1fJFHCFsqNq5aWKjNBVFhbeVt6LZy2LMg0k7vnxS/VkagyLeg57YFYDbxSZLXtO/cZMfagBju8bwGD0wlV3Ql4inMPWD9ji3ne3JVW8H9ua60/VasmejGvO72q42/IcisZp2J1lb5sPw2gMurOrvcljkfqgk3TcFoHKEnWf5X2AJuj1b9aBSydvlj0Ue0JY9KWH2PiuT70vw6iLQseplua3GrwvHjEGnOYIVZ9UXPHmA6YyUPAun0i/TPsJdgBBiu7PqehqgABSUziUSBWzPetUikO/s/tQvHPxROmXc2Zy9dSOYr18Koi14+KVbm//XReeiOUyqgd7i/goKBXavKg/+oY/Vc3ZkUf1Xq7Gpg+qr1UjisntbWC99r9r3t1k0kLgEAZay+LX2pCr76eK8dSr8RW3zvT9joasIYaYGtPVZtEO6yYkwJgYLJFmd2EqgiRMZFP/TFrzxewp7y1iU8hYEM2wvg1+LVU2pLPdgAm/d8r4hFvgtVUb3qt3nSBgPeVUd/uet99az4S9EMtaw9wv/8qni7to9re9p/2UaVFRb+kQfVu8VzW//qEbF4obVmwhiiJ5sQzLuw9ur291RQ9MDox5e5NbXpz6t4AprOAVfsi7g4tYH32796QlpExE7c+olIVGJxsu+mYuz7zbIMglZa9K8qqScHE1qOeoHZjxSVWooZ4JLL2YC7bARh7/97VF14Fq9n2049lc2Z9r1bNqiin2Vrdbw/6r2p7APqvrk1fj39uD6bSsO8ifVT7z9j45J/TxRXP9aL/NQOrgvbVwtmGb+0AsunSe/PaN2oIpmXVA5x+jd3NuIaracC63QWsowGE2SPlyOgEcmFYDjBoVT33uH9EqO7KXa8mutvSyItSMIkx3vyZrdlYsNpMWl4NfnX0ZjlX12Vd8LftQqWaeMSvilXVTIembPTCdjOUgVWRGKoBBySrvNSAlf6rK6zqo/pR2keVbf+DUnNHXf8OfJb2v042NciKgVU54GE7AMccEx7gNy2tVn3C7oQVAWv6HupzwDo6sd+ITf8sNYGyncNa+cZ9c8N97ttAOuSAPuSWoxHOvQcePvdELvm2QIlHZX3l/QlXE+v9TIZe0sVyd79ZE0+YjbYCkGZD/FKtRJWZXBUjJHrrmhYFeMW7YHVT209t2hPQaxrqleORw1SrDlxN2v1XdcBV4fuvpq0osj6qpXjkujFC6deAGWMOu2+9D4bMP8qcbOyBIIi2LHi6pWTJx7/HWvtGkUFWmzQt3YUhtaxvopcBq7YAaCZmTExhF63vBznufzfdJ6fcMdMS+9pS2bxw+/oH/9lG0URizC8F6L3d7j5yRopprXPviDv3Xu+ce7evfbDH3XPTEikE1jbEF6ZwxS5V92zkUSsA+6VsQBrQW+tX1Wr6zJmPYgS9719O9J7U/lw8UxIf6fbTVjrUqbaOf2suayXgu5o7inrz4YPxrD3AnDvevfPDMze3/q8DUhTaR9XYyCRulafcrLxjja0ZwZBUy80tR93fyZFn/vAz8Zr2vzbrHhjkfVsWdEdvEkd37p83vg2Nat8o6sPqTcG6Pa1a9TE6Aav+e7MuYD3t0gR7+9o5GSZtAeAuVL+X/LP3P9H+b0b04e1zF9osSBx93mz+taHnqwADkl5HrC3CoDi74rOGnnvuB750597n7txb4NzLh3Siu/Gjz6d7fb2i1eBfXz0rRZAOWbJWfGEic0M2zOhOL5+GRnWqVuvuOiUhK0VamyR18ZCXwapuP7X/6h7kI+m+pDCAPn5plaAxdYEH0v6rk5LIL++8fOb41isH/LmS98mfXv6/3LdW+6i+ExVvFdRTiS6yXBDPt4jpopW7Js+5a/J0l/9KKG1Z0CVrzKx7eJ4Uv1TLsT353Yl9u/94fbjBXmiySt9p2fjW3TUD1mYrckH8YB8CNdhxz2LTLiSuSb6k9yVpgCrWBTlGQ9SFROyXrdbSZUIceOKQ5K8FwFrn3ufuffDz5eW7C5x7+eX+jhc9KjjRCsNJKUgbCd+2difLyYYqVtv0muFZtNAuRtBd4ZubnTFEnWrVSuxftarys2JV2ttP7e/SqtXJp/5kG0xl1HQk6Z8Jfqi5oOg99/EX0u4zmnczxsbHBF4xNjr67d+fmf/Ov3teOd1KF7u6a4CeyOuCXPn66tn50Z37F30bTJJV0WpLgOODDvQCV9tAterav86KgNUdl7dP7Lu5lAwuYHV/Dn0OfkfC9bhKuIVmRS4vfnq2IYCHtCWIe9Hm8dz73J1785x7ReRXIBYlyaQUIFitjr/h3YT32wsfbng7fzO5e74Sj/jWc7BajkfeG92579CwdxltVDnW234/q1WVt8Fqqrvtpzfljv99/P76w7Mua0iK2vvLc2ZeCiBpxefj2BKseietHt77zeSp89vmD4mvdPHK/tatdBp52nVszi2M+TYREz1grD3hYw9L2/49aeU3LQG68Lc792mD/br0tsosDVgrsdU++VqtftoF8Y1my9h+BqyBVqtm1XB2wZ1Pul3wpnsN/28q4RCSnJx7DYniy2zjR0ecyHwSizfce0NR2gHotvma+MJu7jlGrydu4akhnlXzu1Ry2l0EL1fHp+ZCK0Z4zr3nSPs9x8tqVeV1sNrl9tNZ85pHE/zWkA1JYmCVn9yDn/9tJHph26c/bfx51/uzprjDPbwVJXKsFacr0n7f2Lf7X+sb2uMrvANoy4KN0SFWOnzRt6pVSXtHJR+NvrR/4vbVD3Lf1mUz2i0Akr1GbL92z9Q0fHcB68FsCva7/Q1Yrctzxdub7BVs1hP1tHtQvjCMENXaRD9U00crYLMiq1OZQ6hWHfq5h3B8tXC24dPuHN2VY3PeDkCn1ZfjeMarrfNm8wUi7rpzwRg5LJ5xN01aZKXh6s1QwlUdULqcyJi7t/T6PScS35XliDw+bAilj18tMQkDq/x0QgNHKYjlSjrdO9jeKjlWKy1VZrJFGG9p/2v34e3H/oRw2rJgA9KHUevpe257kux7353wZ1K9p8bi9k11v+lgxGl3E6zDInWwzZh7WDVZb9ee0F+rmZiad0PVHqajOC4lxuzOpoMf0bYawwh2IhvpkYupwBguraCz7d02NfFX59zbM+xzTxlJaoJQeLXryiStvRo+5ljVtzYAVuy8bJKNjK9Toqru3uyi+zjWy3uyfhopG1MpJR+J5/28vQ9W0wd5mzbafVRT9ojnNCiJ45E61apeurn1ygHv20j00rb5Q4stSd4VeMe0m4rXxHNuMUtvFObX+Ec3zU/87XuD3ogT4+0101jRBcwjozsJV9ey3YXO7mZa+4rXZID6FbCWI2vc4eui9YNA9doHe1ygc1mGzAU7hDsecg/wz0pg3LVWq1V9nRnxIFBtn3vz4gH3JWNRIxDW2gviEWMiPddy+/opR1s0Na6JT1r2c9kkvfZYf3ci1kIJV7dP7He5uznljnHxnP8Vq6qU9lBd3TttLpDKqDEGVnmrkFuWn73yL+582vxKHHquWo63HP3zj34t3rNrnju0ACgA3SZnPd6SZo3R4HB69PtvCB7Y3q7krbtjaGUvvQ5Ybbpt0P5X8Y/ukT7iS6Da4YIm446/E3jFhSbBBatpTOhZhZlyieo37tx726dA9T4jLwrCEEW+zQmoVqLKTCjVhevh7gOkR4M0e8dKYzODq1b9Wj7vrL4frvp4z/zsf/nv7VBV5JS7fgaRpQURrGZVq2+t+KHFEPr4fbvrfSnHlZMCD5m5rVcOhNBGoi+sSQjBvGSnxe9trSntf+0+rKxcvBFIWxb0gEuNvL5+ZP2jdhCutmUVvHVfBo+tDli3b6B9gz5gLidRzRi/Khg02NEq1T9ePXdCfON+c8YGNWiob5L24UUlkTsftklAdHp3s5X4NWhG2ueeJPEed+55t6tCv2bSHs6DAHhZaRjIrrb1yIJi//5cpnfFAx63A+johKs7tnvUSmt0/ICYuLzNGrkYSqiqwqhYlfsP8pfS71g5EUi16nQ28RueKcrAqsd55g8/mzdWPhZ4x9jo6J2Xz4j34vQcat94NuV1QWFklUA+Xz+qJonSG8WitwXI/vzTvoSqK60IWNf9eytH6TEpftFK1UM+Val2+BpED4txjz/u+JN4wAU4L4bUP7EUGT0mxTcuVL29cMa3SsOOcQ+HPuIJTOJXOwBJd7XZo9rfOEe0R7p37XyMkZ6FoVlIPy9+q7l75uvuY317j3vhb0QW8O6oxCPXPe+h/4hggtVUkg5NCaKP3192/UZv25i+7iFrbKEGVj3OUmL0fGIyqnfSB5bpbyYDGGTV7n8dSlsW9FDUMm+L36rZjeK0T6vwg9QJVY0Yny8m1ppHWj09nUn/59NWZO06OXvr2jnfHsZTngbRw+bLCOqahBS6uXTeHX614HDnnsehqp9BNJ4oiaM58YxJC7Zkdx4GWY1OTEk5TvOcmnjmj1c/6On7uG89ex+rvQCvi909HzbaDV000GBXdIdV3NLiiJoEJqhg1fyjLIQysEq0AoOBVT66ubwcFWpg1eNouOwu9v5tV4TSrczeP2ili1wBtGVB72W9Vr2/lmahYr1o4Wr25/U9VE3FrejfZL1sooc/PQutNKJlf9uhWF1SNvZVQSoxiR5eVKyqUmlLMJXExreWEu7cu3X1bF08peGEy6I59wKzvHx3wcfBQ5G12kInqPYhq2WBnbs/sT5u8Z6THltOluY8HmK1Wm11L/x+VknrIoGG7KPtQHW3aLDrAt5QK/zDqlh1AqmMqiXG20m1RTdLteoDy5Wl43pTKvBNtbRUmckWabxGtWpxNVv3Zt3N4jfiu/YqvBdbnAZhtN3svx5CqOp+oxc0pJd1ahfNebSt3cj8Rv4cg9BuA2Bq7oafcCdjTKSHLw+6xiStIErQ9CG4mSxVfTr3XDjje4FALbTtrHAp2ML5RQ/bASgXfI2cDHWxOKu2HfNuYFWml20AOtLXUmCFTKt64e/W++dehaz6Gti+c18nTNVFgkPuuOgWDYKsUl2pJOgpDULieKROLx0v3SzywKq1bJs/tPjtrvdnowAewIvGtBvV6+t1/dtkgQHQm8XnJva9616rx8R37XBVqyP2jO7cd/P2tXOSNxqgVUpuWTeR99yfN4TFXdsyZt1Vz89rON5yC9ixLzu5xSbGeHtvUW6XUEwK7ltebumHxUrsR32JC3l/7h5YZ76+elb8VtZvauKRJLHz4im9JmfbnREgbQfgwh4fqyo1nay7e5l6gPcy27JhSTXxjZXGH6990JcwfSlZOl6ORw6Hlg9pwOpC4Wn3acMd+rW54ELW+RV3X9YtbkmSLla2pBnHD/37pWXtV6y/UPpvGN3x4L4W+jWYdMcr7mty0P37ucnMgqtYDcBYJOFMLysSa1pvCR7xnU/enHNfnXmBb6rluHLyzz/6tQC++vr6uePW2hsShs700+nRnFWvbm/3Ux1zx3Vj/BsGsSb3ELORQU/LpfSoiUd8HFjV4Z5k3NqHfUewQlOPhvij86DptVIp1sOnh+DF2wsfettbVdJqVetTL2isQzZ4yM8t3O3F4umQBnRun9hvKtHIe+JrVaLp35CpEKtWV9HK+8NZValGpfpRiyr0fvM1aW/j3yHt+9CVh/74oeznafXr9Uo88v+4L/ZH+uvlrRCRitUe+nbX+zqw6qLAQ2bumT/8bF6wJmuSWWPjSYFn0oEHeswL4CkbRW+7G8ZLEoaabpF3D0v6sPvu9ol9N29dD7d6Na1Sja27N7V7y7E96S7modykWmtsXTbAan/V9GbciBeseBvsPDcx5b5eMu2C1ZrgPveQq9sQFzU08eTBTit5jn53Yt/8Hz2+HqWVRxqKeHPq+XvupdfmKDnovmo1QbDSMMz4OYy6fS9jxV035ny+bujWbxeo6lXjpPtNT4unopbp68yIUKtW15K1N5nsfM8FrvowIJXErvmTH3zuyZtHn1Cx2iPZBO9pBlb5qdliwM6TaOic9KFhNzbPBd7H7vzwjAC+yqo6ghoKmPWPui5Z79WQqj5U2qNq4n6V6kfZ6n84N+tWGrevnfuVbEDkbt7d4c2f1cXaXlY0tXurpr3sqFZdg2kf3vzdmfZiz4zPlfRGEj2+J55wD7HeDCBbQ82G0ZIFT6BhmM+Dh7Je6kd87bmaXc+0j6bXoaoz1+8+6TmoWsVTEKz2TjUSP1e0is4ay8CqLrTK945IOFMLi0SHRMxkizeAl3SQlQvLQusHXM0qUbRB/3QIAeuKQFUfVOrldjgcxOCbFTZcrYruudeGyfo71gSP0sqaxPrUwkGbNmgIPlaEIXu94OvwRJ1yrece8zbCF0IY5q4bur2+7u4NvGpxlA06GquUKhc9D1VlUH3Sb10/Vw/wXhldIljtAR1YVVnaMkO1qpduLpeWgqqkGhYdZGVZSfNTJC78CWaLLwpIHz6SyITax7qWVX2sCFjd8f03xBej3z+wKlAd+UJD4SAf3N1DxUarVdGd59xrxYjd646fC9bkwgg9fFtM1sEuv3cfx3y6/qB7WbA17V5dzNvICd+rVlPtRWJdaB377pCrV3UBeHQinfi+O+1rb824eMz93V7SnVcyIAHfK+MpCFZ7o2aNpVrVT7MaGAq6slxxITQraT6qlptbjuoiDuCrEFsCrLIyYNUm+zs6IWtWeTFQ1R9MaR9IPfQBRYcChB2ottkoMf8gOeL+Lmr6IOmL6ov/LMtJNOZ+Z+8JnkDHFBsfe3SOZeHqDl+393rDileBTRaqjrmX1jFBbgSzhduY8azF0ZFh7cDRexZpLwC/lw06qonvouRtGaAc3CvjMRhetUk6sdvauC7w0c2tVw4MpLQ/LzSEdq/pt4yNQxlEUyCJ9ur6pTsIvuEtbQlQjiqvGGN2SLh0+um0JNG0+7zhjgt6uAeGeU04bbqV3cjy8t10CE6vaJBaXpL2hmD3H1lqP5C8qodJWpPa9D/wtv861aDvfcyGoCbtoHvoi7jP/t3/371MWv+5HJfCeKAdomZyVz9cqMQj4qExk0TX3Ckzu/2l/e9ap9mK3PXmrGAFIzVd9HJBhQxbtrgyllbo0QIgdwIaPFTNWgP8wh2zLmA9bd0ty+1r/Rtu1R5OVdEdAHqLcth9nUJa/J27/dmHA19g03vlSjTyqruGjQlyg2B183ZHImz38FCzZfYI1k0HWd15+X0XrJrdAq+U48pJF3zvdn9HAvhIKzueH596vRXb66ZdtRA6DVkPG2sPZ1sB592hfRk/d8fC9ol9izabcmo0/ZBIB6Pet7ziLqu03P4Y2cQ95kTpIBh9EHH/XrotudkOwibd8aI7Xq00czbJ3UojSsy70htWPFIqbdHKuXkZIg1VoyjeVi5Vfu++OjXBE+miiFssWdTz2tMQwK2kGO3HN+0+r7vj31xI0tCQZFghq21vdPzS+HP66d/bpAz53GtXqt7dViklH7mLeU2QO3pv497vT2Rb7kPQ2YGjv9+6u9al7XfcuWuXWkubXhTWMLUcbRHtTtpMlvQ8PKxHaLtpopYZynBrfT25RaG3ImspZMoRgtVN+HbX+2ISczL0EpJ8MnMMrNoEK2+71/UNgWfMpPtGA2/eiOEtrUgcnZhy1xCbq94V2QPDXqOHC0PTSjdrtdJBA9fPs49fSrvKtWPl57XsYzU7vpcdGsrVXJBavX8/kb/7inRg1VcLHzRkk7Lg+kvjT7Sq4fhR95A0P6zKOd3+n1aqpqGq3/3sfGKS9EV0QSLjc4GEBiRzlTj9vZ7Pjn9zQUmj8xM6izrGJC7meLCy476bdjzIFm9M++dqf1mxt699IBvk1aKG+7MdHP3+G/O3P/tQhqGz/b9SqnzEuZdvWrVaiUZ+HliVYXr9yLae67VDd+BcXrEorJeD9LrRWQhe/LT9Pqa7aFS51RJpxe2LRzublSxM3esuOj8vxyP6uq+GdtuiX5Nh7qDRlgDuOn7cfd1mBLlAsLpBWa/DaQZW+UerD5ZbMpQVqLzY+smbC3/+0fvHjTVc7D1jbHzyz7veH3vmkzcF8NXt62fn3A3ji7m/YTRmPHuYyLbqW1kZ+FWaa/5Lku71l2xrf/hb/J8mbQHQq4FVWeVvI4nFG+7v7xX3h5x0Icv8oCsJdVDVchK9UI5LVKqukzWRvjbnAxo05BZ2zF4NWbMKel3Y6SzqNNzxJ3m4JUXNHc/Kg4WcWnZoyLLunpEeLmrouTftfju/rI7vvdHL1izd0H6SzVa2/Z9K1dwLucowWxiedp9Nr1gU7hz/Rx5cQyStjHf/QvPhxWANT/Va4u55zCvu16h5tsayPlZuNpN7Q88K3ALXkdGJfaG3z0KGYHXjam5tOJTtAMVi7Iltnx5oCDZlubQ0W26O6MNGHrbz5knNHfVvJk/Vt80fEsBX6Q1jO1ylrUiRuQeYpeRez4ZD3JW0N+ZiRbzqjekiOnvSffgHF67eHES4+uzfvSGVclpydLAcp8Ny6Ou4Tp73WX0i82Ab/P1FHf1R9zp86Ce1P65YvDFpleeG7ut8XNRQJok+ch8mXLj6zSDCVa1Sdedc1k8yHV7MuVcQWmXogseP3aevScjai8JZhXX7urFyIVgXTyrNzrUkkodWjHOwEmyNndWgXDwQJ9HrSeQWZ+i3GrxIsG5araoNrKlW9dLNZ/7wZl08Z3/nDs/XO3WQVUuSXvXDQw+5lc3D7ltu5OG9Zuve6xqsCYrKRon5h14+wGhw4oKw+9U1HhmrRMn/0I/Z9uC+0N52oxP7jYli9xBmLmofvdD62vlCX0vufl77rM4Lnuort2DQim3DejCobZVaJaro0Kht/T73tk+kk9Y1AHHnnhzj3Cuepda9t7ivCZruoDktntB2BDaOX3fX1W8EQSNY3Zia0A/DV963AMgCVX39eH8z9uyVfznOzYOXquXmlqN//tGvBfCZBmouWNvDdaSYjLFv96OHWdI+Bj7J96mM2VGJ7e/dZ2OjO/ebXoY8Ov18dOc+rRXaZsQeLbcHxE0KNsW2XRB0RytirW2Ib4wZdwsu10XPvZf6ce7tT889d9TdOf4F515x6X1Ny723CcLj7kWHNbDqSW5/dmZBrOE1FTiC1XXSgVVxPFIXeMhe2nrlgDcrUE9Qc8cxWZaZELr02Kj1lsBDiYbzkwJ4ToM1DVdZjS8YY2b/ePXccekD3ZXoji/FT9pz8Qv38aRkAasGM+ul1XGdQCcLdXa7P/XxcjzyhU6mplKuN5aTJT1Oe1iF6Sl9KZrL4qdadu69J5s897bv3Jeee9snOueeHOuce4LC+49r585nA6EQkCQybw1zYNWT6GwCvW8SBIseq+s37dLoUJrcF0qzFXkfAKZBalPq6ZKGkcPuWw2Cva7keuYPP5u/8/L77ndu6JPoGWOjo9/+/Zn57/z7AQF8pjeyo98/sMcmLd0+Sd/m/Pv41tWzdekTG6UN384baw+Lp3Sojgt5dLDOnPvu6e0791/udKnrTHF/8JMfTG7XFMc+mLqsPfD2un/8T0ZsTdBz2g5gdGL/olh3P9a+L8MTpefegs+Da9zvcMadezPZufcrF5DOP/hnTz739I+1lNzr9K99xR2vRpZzD49qtu7NVqKRV+mNGQgXWmqPXPGY3jdt18Uga1nACRDB6jr89YdnJZGEF7qXzNy2T3/aEP+Nufu5TjBflZactL+V3eYn4jUNrcuxZSuvd8yk+2bvN5OnzjPICr7TrU6EqwVg7Y2lZKmvC53Ly+nQoc+1P6bvlZsasLrgZjr77rw8mOK+suJ25eT2qpF0W3NNOoOIcjAsxGchBPW+CGngV+fcy6qRtXXIU889d7TPPclOO849PIa2BHh+fGpPq92WhXsan7n7klvXPqhLAFaEq+8IV6CgEKx2SQdWOQys8lOj2Qqgt+q/um9acnHVD09mx7x4TEPrP+96f9awBco7USLHWnH6+mEbI7xHuJpz2r8siV7v97TdtMpw5/5OWDIpgTCPTHFf+Q8fntyOwfn66ll9PWlF8Ty9M5+sc+6F9LXKFl8mhXMPPaa7cf525763YjEfC/yU3ZdIQDRcfW5i32JkjLY14aoUCHqsdq+WmISBVX464Xu1atZLdVpkjWDeyDH7W/HecmVJewnRI9E/tdJSZSZb/AG8lzbpj2J6ruZN+vBi9gyqfxlDh9BL1hhr6W/XFc494AHtt0pvTD9ZK98M8r6kl76+fu54S+zr3CuHg2C1CxpYpAOrqFb10c2tVw6E0Dy85s62x1V7ag817wdZbZs/tNiS5F2Bd4wxun2RHk8IRidc1TBOEL4Bh6qKoUPoJa1ajazoUKbzgifqnHsCIKUVhgyz8o6ul3k7rKobGtrHLTPBvXIYCFa7M8bAKm/53wJAA9PkMdWqHSYNXb2f8PvslX9xNw12XuCbaiUaee/PP/q1AKHQcFXDOG4YAzeEUFXpluRyNNIeOgT0QNQSG7XM24T1T6bnXiUe0a8RITSQuX3tgyM680PgBReqvn1Lq4kDp/dWeo/l3pc8L8EaCivWLognCFa7UI5HPhJ4yMxtvXIghAeqmjvtn9abtOrC16NpH1bPWZOw3cVD1sheoTccAtO5YSRcDZS1N4a5zS5OjHXHCQF6wL2OZTlKblpruc95isSlFu7g3ANWuHXtrE6Spd/qsBkz+8er53JTQaz3WC6435O1nLACZfXrYSX6pXiCYLULibUneOjzTxADq37nvmlKvbufLNrDd4d47pk//GzeWG4aPGOtsceXS8verNoB3dIbxqXk3gTb6EJj5paSpaH2LtMgLIml4X4vVK2iJ76+fk7b65ywng8VHTZtnWCsvczXCXjYUuveW25x5oZgOFzYpq0ZJIf0zxW1zAvkUlmomviVBRGsduE7n7w5t/WTAy+44GKWF7If3N+F9wOrMnvdWdZ9G4lI3gthkNVSYt4Wtsr5wGqziaZ7k33mD28e0T64AgRIp8in2+hYjQ9BekOrlTn69yZD1t6+LbNs30avxC1j3fEWQ0OerPN1EgD3pfcz189N0BZg4GyeQ9UOXcy+df2DF4p6v6wDydy3r7m/Z+8K7AhW18EFF/VmYvYkInPCg98w3VxejryvbMq29R+T9Zl0x27vB1m5UNtqJTeG6aY1rT1br7y5J5BFBuCp9IY4MbQG8JXe0NrIvOXTgwvbt9Fr+ppqxsnNRKyGhtzvP0ZaMe7OPeHcAx6RtgVoh1/oP+vbvUm/3a9ebbeeKML7lPZTvR4nZuLWtXMXxEMEq+ukAcZ3rhw41Gy/kLXMnxuuwZv1PUjKgtFpedLAqscxclICGGS1XFk6TvgxeFpBo9XzW68ceEHbMgiQM19fPTtPo34Pueu93tDe/uzsnHiG7dvotf+45l5TVs4n1r4teKylZEkPWqYBa0iDPnbi9JUu+OqCvI/3Jv2WVq9e++B1a81b2TU4r6+zdjXy9XM7h9l+6mn+v/burzmO8srj+Hl6RoLKGjMkMZWrzVh7H4ScVFHALrJrs5eL4lRAkbNG9guIZb8AJPkFBJkXEMts7NhOVRC3EIy8RFSqQPaw94vEXgWLxOJPbVma6X72nJ4eWf4jWX9GM0/PfD9Vo5FlGWxNd0/3r89zDsHqDlmwp8HGgJ5wneRkoqUWcjOwKnrkwKqN/2xNxoKvWp09sZwUalxwtE69j2rPii37nxCgg9GoPyje+t9aH9yQT2hZvo1ms8A+ctE5evhubLkyIz0937ntC4Wj7HvAg9KVOHqDhv1jD2Q3fO2GvHSxpRuXp609QAcGrHb++YGPCwMhLv2/H8HqLt3Tf5WLv73n/VEJXBqI1gdWlWWnnJzSj09J4PZ/eHxG/8Wzgr2U9lG1Zf/0UUW3ua9RP++xLZb1sjpq/W9D6Ke6GVuWHEe6nXjHDb/NeZanbt2t+ct23DlBuLqxpY8v2aPivT8reAT6bnYjvUkzpTf+BijGapo0cAv9hm+rrQ9Ys1VfeT1vTl/fxLnDVmSxVLmUi+HMBKtNkvZf1Ys/+q/uJach9rE87FgHtzWw6uFKEudjkJV3CRdoe2chieSo9VFl2T+6VaNRf7Ykl/fX1rCf8/lqstJ3a/7qjOSEXlSIi/Q8jOBwI10x3KPZCFe3xsIj9r0NpfueDdoTdCU7l7E2R1m4zrnMznnn/BkL3EK/4dsuFrDaz6feg1W3t/wUJ9wTqH75yeXrkiMEq0201n/V+wGqa5qvmoOTkXRglQai0hyjUh9mFTQL/GyJuqBpGn1Uqz0rA/s/HMlNqAHsJbtoXztJ5P117+j5i/UruzV/5WQeL1o0NLSnCQKeBzRCVX4uO5CGq07Py2hPsql6aE9V5n3SIIgbGqj3xLx8InERrQF2Ijs/+eKTq1x3bkFje7PihFhs1a+brq9ECuo9zKeDUUWm8hqoNhCs7oGnPjpWsfYA9F9tHguZcjL5fFQfQ9IsTsb9nyR4teKqXWhw13D39H3Fna/FbsCq4Fn2D9yrcZKYniByA7Op0pNtDY1saV3e+5URrt4rvWiJ3AlC1d2x7SpJkgmq5zdnx2i7SBasDdYhCMJ6xZqvtwYQseIJjiWPttbrvdv7qe7U3+avztixeenGle/aMcl+nppoNgaxt3IbrP//9Bx+LUzVv5O1nMproNpAsLqHrP9q1SYb16v5OGju3EIehvX490V2MbBqI4P6eC0Pg6z04HxOsFNrfVT3zf3yZE5uIgBtk54gdmaj/nZIl/3bAAirqOqUpXX3havdu33Y/pEUbGIyy9ibwAZaFZPIquf/ieKJjdlFMvseg3XwcNYT3G4U6znMz9adx+BBGsD5mxYE5qHXe17YMcl+nks3rg6sxitp0Ko/Zztev31f2LrT0PWeP59VpH5QD3PdydUe12fn8J0Qpq5XFOypLCA5ffu5358rFPy4JtmvidUhYjvCbwFgwWeShqplab4JfbwjgVeEPvHRsYlvn790XLfug4Its6VAekA4vW/uGBe9wDZZHyl9mj4wMDzqxL+ux5+y8B67VVYBMitRcmbp4z/kYjDAdlm4+r1Dr0zop5WCd7/psvcnu6CZWU1WctnSIWQWipT6hzSwloGewmMTesD5tXDceYDdqPn+wCvLzrnXXQ4GsjaRHVvPVZOVSfY9bMb6gv+gf3haDx+zccGPcSy5y8K4KPJnv5in2nsvZceo2eyx5sBPRvq9T0oukbKTpGxf8879oz3rBlryNg/mrsXGJ877/9Xvu63f/JUUokq1kCwv/6U7BowRrLZIFrCe+Pr5i9cjcVz8bd3NfXMjeQicynoJMyp7oyw1GdPwdsIdlqD5KD7pfCHw+towpL2VnH+zVlydYsk/sDsErNuSBm6Jc292QyXV3+av2oWrLbf8NIn8+92wbWQXpJNffHKVlSR7RC9G06fv/3h4THeomSjxv+W48yDrjW37n+5717rhxobte875k0s5GvqH9rIbNWpR95MxsaXRBSuo8cele48l1g/8bDW+M7V8gxsT7bL08aWOvOG+l2gF0GLWHsD6r8aSnKHs/9GqsTsqgUurVatpVWlZ9oqTU/ox+BPS+uT60BsXtF267J8+qkDzWcDaaBFgy46EFgFrGsMBbADYrfkrR7tpeWq27HIhEW/97zt5aEja1qGarPQRqraG7kfpskpNAmhNsoG0N7Yelzu8NUDaA9L2vVuEqtiBtfYAcTzq42TA1ysIu+lYkr5/pecoHdSWCN2DYLVNnpz71ZT1X01EpoUTsA246Zz0mjyoe9JrsrdKEstv/HsSvGocnRQ8jO3nN+t9VI8doY8qsHcsYLXJoj4qDAQ6BbVV0gEBFmjYBb/1s7ILN+lSjf6Y9aEhzlbDdMo2YaHOBzYEQkNzlv63gS3pteMOAevGLCyx0MSOydJ5+x49INEUS5U/2KOi71OHs/2lk96rHtAYnJnd9D3Zzeco2B4niT1+KIEgWG0jC1b2z42cqKYHTU9lzb0Wq3EOequ+qx9i+aO0xpDUh1kFzbbrbGAbMll11Jl9cyMD9apeAK1gS5lsCqqFivdVsXby+21jUIBNWz1ilWJUf9zVqAqKYhntgIvWtUDVbiR00hCIvGoErLHzfbF4W3XVmPrNOb5k1at6TO6AgHV9oHqEAVVotoe8V0130A2bdChV46avnaMQqGK7rGeEPsLo3+395/RYDUBWuXbk6+cvjmb9V7t++I8Gcxee+svIooRvVB/90ipOxv17Mut+KkGrFVcne6qPWRVvNw0reBjNcvw5+3mw5B9onyxUnLbHD/qHy3GkN6mcP+7u3qzKey8zC1OX9V8x4517qxbfqRCkbm5dX7tRffknkoKM60/xpRz0yUxfa+dkVkOdc4SpYbLevmom6+/bOOa8phvWS9m3tGsbCyLkzUKUE/rzmbR9Tzfql3WbtmEowe97+je8oMfZdwhT0QqN9yp9nPjeoVfs86GCRENZH1aTl/OXe/ef+SuzAuxGfcv/kbSf17/KMg3WA/TNixcnnHc2FbBbQ6mFfXMjfRI4/759SO8clqWVvJyWokyFPsjqqxd+N6Zv/G9Id7I+qrPWFoEl/0C4Sv1DpUKhd1CPVS97nzzjnGvcKAv9/CgNRvQqpaI37K9zkd8cBwaG7WnUOf+yPr+cfTmEbcFnH2b1aaYar7y12+D86YFXP5N2cVKxPr/SZfR4kz4Vi4/3O+/tFz/SF7U/CxTNXmxr94SoWbAxsTR/5U0JiB2Le6LHhwK84bV+33tH970Lu9n37MZeOsirTfTq/x1rWSBNUur/RX9vFLVq5d6Gmv3vCl3jWGL7jB4/BvVc4N/3+DiyE9l5yt0wtVbjpm8r2Xai20i6kqITHTj0qm3rf3eytu23i+6CyQmC1UDdfu735ULBj0eS9u7sttdpVIPVCxKwtHFDIhP6ljEurbcsBTmowWrwb0zfvnDphj49K91lwbv4JEv+gfyxi95qIemPxFlV2TMtCD0eZS0UaVQp6hc+T8Rfj+PVWS5Q9kbjorWNofv6C9IZTQ2uV5M77/B6d54DPxmxp/4kqZULerzR8MH6xf1QX3w97rjyuuPPI6XHCD1H1JBpUeoVbl+lz97peWP0abX6f4t52IbW3/BaV0Vu2rHv/ZfuezPsewjZ93+c3hQc1Bs2z4jdFGzPucvavpOdq1yXqHCd6fKtZ9uDbgtObwSl4buP5LwNWuwkpf50mz/YW/Dtu0l8l7e2MASrgbOAtcfubIa/NK0pnJe3/+GjkeCrGDRYLUucVqu26S8gk1KUidCrVr958T/1Tb7wgXSBtI+q82/WiqtTLPsHOocGH2uhhzj3I93XS/peVV53sX+/rbxXP3QpbiMYsYo+C1D1S4saon4e90SV5b/Qf6xd1lcaRkkymG4H3pc3Cb422wb8Bl9dXHvdvatUe+U6rzka2548/vimAWsnbyuNG15rx2Dd99bd6Ljfbve9T3Xfm2XfQ57df8Nml+9Z5oF9J735IF73HVfREO/z2MmnnKu0TyNMtc/1Bp2F7NYqYsiqOa0Pe6etaspWGJ1wzv9W2s9H8UofwWpOdEv/1WrsDoa+dDodWGW9+qK0mrh9CtKnwWr7wt0t+vaFi9f0/TrwCHhX6KMKdKnSc8PlYq0esLoke5ak/Kg/pye9t/XDV+nnkSzWinphf+fOMlVR+bK2HLPnO2Xvk1K6DTj/pF7QbNTKSd8v3HL22nt97T+3154LUWD7rLLVbnbY51vY99aOu4lLlqOouKhh7TL7HrrJQ9+z5JHnLZqhRp/LuvcszlfCYGGq3uy1Y5vLwlRrYfTa/Uvj9bU+V02qY/qaSaf4fr0NwNvR3bZN7eRvzV+JCFZz5Pbg+VKx1jume87r0pHVq25639wvT0jgNFh9VkPVG9J+s3r/8HDog6zSquuCvynt73/SbGkfVe+Ssyz7BwAAAADsFQvHe6PetTBVg9WX9PnUI/qMLq/GKwc7JQzPbhA81VN47LMA+qtaInDz1o0rA5EgN6wa7ok/H5uoxq4vqU83bvtUzyZaqMYyKYFLq1UjaXuT9sygPoKvBLUKZO/9OeksC0kkR/fNHTtCqAoAAAAAaDYLEg8cerUxrMmq8if0cS3y1i7SjW8hXCxpGDuWBZK5ZwO50sFtgRRtOZe27hKC1RyyoGr/3MgJ7+Ij2VT6TghYJ4NvAVDvFDqqj7KEwslv/XsSvFrv6pRYD9Kcsz6q3vnJas/KwP4PRzpnPQUAAAAAoO3SMHVgeH2YOqaPa72Fx/6ehamDsh3OnZIOWT2a1uo6/7qEwYv3s/YJrQA6QAf0X13YNzfSJ4HLBlZZvFqWkHg5LUWZCr2LabqdOnde8sl7LzO1xJ0J/QYAAAAAACBfGkOoqvFKyaoy9RfHtx2ibsA7mfLiTn/5yWXJq8CGVhmfDQe7TrDaIayPZbGYnNIA3+5G5Op1TSL5WejVf2m1aiJvaIg5JuFZloIc1GA1+L4p375wUX+SblDygz6qAAAAAICma4Sp9nk2hOq4fronS901BDxSq935IK+DrJ6uV/B+JuEUut2+NX/lu/ZJUdARsiq60xqwnisU/Hgk6cT6HASsbnr/h7/Mw55dDjRUNSUNfcf9u3La/ZsETQPKSecLg5IDtuxfd6Cz++aOTQkAAAAAALtkYWqUJPUhVPWKVJtu/1rk/Z4u19f/vlV6DkgOW/QdGNBQ1ftxca4sgdDXrtL4nIrVDrWuPUBZAn6dq7E7GHxv1XfTp2mJ0rA6XIkMaLB6UwL39QuXzkf1XrWh0nuG/mytuDplA+MEAAAAAIAdsr6pvVFvPUx1blCD1Zf0+VTLhzB5X9H/78DS/JXczOkpPfOKJlpRX2/B/4+Ew3vxo0vzV9+yXxCsdrivXvjdWMFHvw6x/6oNAXriz8cmJHAarI5qqJqH3qCzetvksPupBM3aVvQUvAXAoTXQTpf9V+PoJH1UAQAAAAC7sb5vqgarpzTUfKlZfVN3Si96p/XvcHI1XvGhtwUoPfNzTS17Dmqoek3CmnXjo9j1/bVyedF+EQk62pNzv5qqJu5IYhWX6T4UjIVaLZqWwPk/ie0l45IPg/o4nPaDDZiFlt77cxIO2y8WvIuP7Js7doRQFQAAAADQBIP6uNZbeOzv4tx4u0NV4+qrR/+oj6dK/cMSKgtVnYu/G2CoaglCpRGqGoLVLmBB0f65kRNVTdSzMUwhBKyTwbcAqAeUNgysLHnhxPqmhFYJ+oBa7+qUboUL0ma+3l/mzL65kT6GUwEAAAAAmimEMPUhhjTsvaHPBw8cekVC871nhtNK1Z5i7/sSXh7jnfgL679AK4AutK7/arvaAyxYkCWB02C1LLFYvFqWPPEyKUWZcIclaF//81tDUVJ8W9rD+qieqxVXJ+mjCgAAAADYCwcOvXrbhVv8tOjFT2o0eKEaO79cuSztdmBg2EkS9btCbFW1ZQnPPW0ADMFqF/vmxYsTzmvA2urtwPtn9310rCIBS6tVqzkYWPVwy1KQPg1Wg5/29+0LF/Un7Qaldep9VL2ceSrwbRAAAAAAkG9PD7wyYW0AJGDWd1WD1bO9UbKwmkTSjoC10Y9W6quGx0MNo/XvNfPF/JWfrf8arQC6mA2OsvYAre2/6qZDD1UzB3MaqpqSxPIb/54Ez7tkUlrnbh9VQlUAAAAAwB5bTVanJHDWd7W34D/TTyckbQ/wqmtV/1ULVO3/p5/amttr+skbAVf4ev1hPTDYnIpVpNJJ7ZG/pltEWfZwu9Ag92DwvVXfFbvlYDWrg5JnXg67n8qsBO6bFy++4bwbkz2S9lF1/s1acXWKZf8AAAAAgFZ6+tDwtF6Z5qZwa10F66J3zkuUyNLHf5BmWVedKvrfH9TPXw+0F+29vCzcunHlgbaWBKu4x172X/XOT1qVrAROg9VRDVbPS/7N6uOw+1cJ2u3B86We6mM2yKrZd6W8VUhXe+6cIVAFAAAAALSDBomDkc/GY+eJ9xUNPi9osHpdkihd9akhqFVtSuIiqRVFlv+ycduA0nPD0hPHInHB/uBa/piFqUP66fGAq1Pvp/9wP7o0f/Wt+3+DYBUPsKCrWOsda3L/1XwMrLKZc/Vp9WXpDKNSkAuhD7L65vmLE655fWfSPqreJWef+PN/zAoAAAAAAG104NCrtsw98CvzjXmb5SJS0UD0uqZEn2qwuqzB6mJv1S9mv6/ZqYWmd0Ok1R5X1mC1pMFqv/5mv37pR/roz1GYetcG1aqGYBUbsvYAhYIfjyTtNbrbbWVUg9ULErD0/lEi47rDTEjnWNRg9VkNVoOv2Pz2+UufNaFS2kLxydC3NQAAAABA9zjwk5F+l8Q3pUNZ8KrB6rIGq6VcBqeb27Ba1TC8ChuyXqj750ZOJFHtaFbFudMBVzdzEnSV9V+4Z70+26QsNRnLw6IDH8UnZYesj6q1mqj2rAwQqgIAAAAAQrL08aWKXrcGP8hqp9Iw1Um5A0PVtFp1o1DVEKzikfZ/eHxm30cjfYn3J7OAdVuqsTsqgUuDx2paqdp5BwEnp/Rj03vmNlt92f62I2Dr8PJ2LXYD1r+XXqoAAAAAgBBV45XJdLgy8sT7QvLzzb6BYBVbtv+jY9PVxB1JRKZly9WrbtoqXyV8B3VvyM2Uvm0qSSy/8e9J8KpxtNWqVeve8oF38ZEnPho5mpNtDAAAAADQpZYrM8ve+7OCvLDca3rp4z9UNvsmglVsS6M9QDV2fVYpKJsHrIvVWCYlcP5d/RDLNelsNnFvUAJn25d3ftPlEdkdvjP75o4dYTgVAAAAACAvvrxxdUqvaXPQrA8aPixGsXtkEE6wih2xAMwqBR/RHuBc6JWE2cLzUbFepJ3OyXgeqlZrxVUL4x+2PMJbH9Vaz0rfvrmRju1NAwAAAADoXIXYnaQlQPAsf5j4a+Xy4qO+cbeT3oHUNy9enHCJO75uqvuChl99EjgNVm2ZvE3mK0s38HJaijLlDkvQvnrhd2MFid7IfmnL/metTQBL/gEAAAAAeXdgYHjUOX9eEKK0BcCt+StbalVIxSqawgYH3dd/NfwWAFatmsiYdEuoapyMSw4GdD0596up7BVasD6qtuyfUBUAAAAA0AmWblye1uCElZgh8rKwGq+c2eq3U7GKprs9eL6Uh+nsGtuVJd6wjUHn8hp6F2Ui9KrV28/9vkyYCgAAAADoVAcGXrnhnHtWEATv5XYhcQNbaQHQQLCKruT/JFatOi2RvCbdqCB9Gqx2X6gMAAAAAEAgftA/XE4if21dW0W0j+aqfnRp/upb2/lDtAJAtxrq2lDVxPLbPAyyAgAAAACgU1llZJS4I5sMBUdreHFucruhqiFYRdfx76ZPb0h3G9RH4M0AAAAAAADobI1w1YvcFrRDGqre+uTyjmYFEayiq6TjkERGpZsGVm3EUbUKAAAAAEC7pT09owKVq62neba7sNNQ1RCsotuUdasfF5iyPiaysBkAAAAAALTJ0seXKrQFaKl6qDp/+YTsAsEqukYaIFZlQqhWvcvJKf1YEgAAAAAA0Fb0XG2ZpoSqhmAV3aTc1QOrHq4kiYzTEgAAAAAAgPZb67nq/U3BXqj3VG1CqGqcAF0gG1g1TbC6AS+H3U9lVgAAAAAAQBCe/vHwhHj/upDfNYt3zp/+4pOr56RJqFhFtxglVN2Ek3H/JwEAAAAAAIG49cnlCe/dSS9yW7A7XhYS5w43M1Q1JN7oeP59kaw/SVmwmZ9JQWbcYQEAAAAAAIH4Qf9wOYn8NU3xDgq2y2swPVuI3UlrsyBNRrCKjpYOrEpkXIPVCcGjLGqw+qwGq8sCAAAAAACCQmuAbWv60v/70QoAna6soeqopBPfeDzi8UOpyZgAAAAAAIDgWGuAKHZ9egH/gdSv4/FwXgPomz4uDOxlqGpIuNHR/LvSLwV9YGu8LLt/lRkBAAAAAADBOjAwPOrEv057gHt5L7ejyE/udaDaQLAKAAAAAAAA5FDaHiDxxwlY0wre6dV45cxyZaZlLQ4JVgEAAAAAAICcSodbFWU0C1jL0l15Xzqcyjs3+eUnl69LixGsAgAAAAAAADlX6h8q9USPD2UtAsrS2blfWwPVBoJVAAAAAAAAoIN879ArQwVxx/XToexLnZABek1Tl/VfcqEQu3N/rVxelDYjWAUAAAAAAAA6kLUJiAv+ZeflVE6rWH32YVafZqrxylut7KH6KASrAAAAAAAAQIc70P+LflcsDHnv/0UDwcHsyyFmg43K1IoEGKauR7AKAAAAAAAAdBHrx1oo9A4WJHrZ++QZ51x/9lutzgr92ifeV8S56965d2q1O5VQw9T1CFYBAAAAAACALmYtA2pFKTvvX3biSppyvqSJZ8k5Ka37tp3kiP4hX1n04pc1RLWK1IoGqf+dlyD1fgSrAAAAAAAAAB5gla09Pd8pJ0mtXPDSqGoVDUOf1KcnN/mjX2lIu6zft6zfvOwj+VyD20W5c2c5jwHqRv4f1pWDlT3kunkAAAAASUVORK5CYII=;" parent="95" vertex="1">
                    <mxGeometry x="37.23809523809524" y="6.507432869910625" width="61.97466196623633" height="21.146822740814297" as="geometry"/>
                </mxCell>
                <mxCell id="93" style="edgeStyle=elbowEdgeStyle;html=1;entryX=0.483;entryY=1.002;entryDx=0;entryDy=0;entryPerimeter=0;" edge="1" parent="47" target="50">
                    <mxGeometry relative="1" as="geometry">
                        <mxPoint x="208.25" y="225.92000000000002" as="sourcePoint"/>
                        <mxPoint x="342.9999999999998" y="204.00324757004017" as="targetPoint"/>
                        <Array as="points">
                            <mxPoint x="340" y="225.92000000000002"/>
                        </Array>
                    </mxGeometry>
                </mxCell>
                <mxCell id="57" value="Scheduled job" style="rounded=1;whiteSpace=wrap;html=1;" parent="47" vertex="1">
                    <mxGeometry x="61.24999999999998" y="207.7976911976912" width="147" height="34.87445887445888" as="geometry"/>
                </mxCell>
                <mxCell id="66" value="SQL worsheet" style="rounded=1;whiteSpace=wrap;html=1;" parent="47" vertex="1">
                    <mxGeometry x="269.49999999999994" y="259.5281385281385" width="147" height="34.87445887445888" as="geometry"/>
                </mxCell>
                <mxCell id="94" style="edgeStyle=elbowEdgeStyle;html=1;entryX=0.508;entryY=-0.086;entryDx=0;entryDy=0;entryPerimeter=0;elbow=vertical;" edge="1" parent="47">
                    <mxGeometry relative="1" as="geometry">
                        <mxPoint x="208.25" y="228" as="sourcePoint"/>
                        <mxPoint x="344.17599999999993" y="259.528935064935" as="targetPoint"/>
                        <Array as="points">
                            <mxPoint x="240" y="228"/>
                        </Array>
                    </mxGeometry>
                </mxCell>
                <mxCell id="67" style="edgeStyle=elbowEdgeStyle;html=1;entryX=0;entryY=0.5;entryDx=0;entryDy=0;" parent="1" source="45" target="57" edge="1">
                    <mxGeometry relative="1" as="geometry"/>
                </mxCell>
                <mxCell id="71" style="edgeStyle=elbowEdgeStyle;html=1;entryX=1;entryY=0.5;entryDx=0;entryDy=0;" parent="1" source="57" target="46" edge="1">
                    <mxGeometry relative="1" as="geometry"/>
                </mxCell>
            </root>
        </mxGraphModel>
    </diagram>
</mxfile>